<svg xmlns="http://www.w3.org/2000/svg" xmlns:osb="http://www.openswatchbook.org/uri/2009/osb" xmlns:svg="http://www.w3.org/2000/svg" xmlns:xlink="http://www.w3.org/1999/xlink" id="svg8" width="1920" height="1080" version="1.1" viewBox="0 0 508 285.75"><defs id="defs2"><linearGradient id="linearGradient4116" osb:paint="solid"><stop style="stop-color:#000;stop-opacity:1" id="stop4114" offset="0"/></linearGradient><linearGradient id="linearGradient2138"><stop style="stop-color:#008243;stop-opacity:1" id="stop2134" offset="0"/><stop style="stop-color:#00cf6b;stop-opacity:1" id="stop2136" offset="1"/></linearGradient><linearGradient id="linearGradient2146"><stop style="stop-color:#ff2e2b;stop-opacity:1" id="stop2142" offset="0"/><stop style="stop-color:#ff6361;stop-opacity:.99991107" id="stop2144" offset="1"/></linearGradient><linearGradient id="linearGradient2140-8-6-8" x1="47.892" x2="115.197" y1="156.911" y2="47.535" gradientUnits="userSpaceOnUse" xlink:href="#linearGradient2138"/><linearGradient id="linearGradient2148-2-7-3" x1="74.802" x2="165.759" y1="170.417" y2="109.129" gradientUnits="userSpaceOnUse" xlink:href="#linearGradient2146"/></defs><metadata id="metadata5"/><g id="layer1" transform="translate(95.146675,-9.5208721)"><rect style="fill:#303136;fill-opacity:1;stroke:none;stroke-width:0;stroke-linecap:square;stroke-linejoin:bevel;stroke-opacity:1" id="rect3216" width="508" height="285.75" x="-95.147" y="9.521"/><g style="font-style:normal;font-weight:400;font-size:40px;line-height:1.25;font-family:sans-serif;letter-spacing:2.93066px;word-spacing:0;fill:#ff4b48;fill-opacity:1;stroke:none;stroke-width:1.07227;stroke-miterlimit:4;stroke-dasharray:none;stroke-opacity:1" id="flowRoot104-2" aria-label="PYTHON" transform="matrix(1.5166214,0,0,1.5166214,-1060.6555,-70.25993)"><path style="font-style:normal;font-variant:normal;font-weight:900;font-stretch:normal;font-size:45.2726px;line-height:.25;font-family:'Uni Sans';-inkscape-font-specification:'Uni Sans Heavy';letter-spacing:2.80441px;word-spacing:0;fill:#ff4b48;fill-opacity:1;stroke:none;stroke-width:1.07227;stroke-miterlimit:4;stroke-dasharray:none;stroke-opacity:1" id="path5594-7" d="m 764.53526,165.21289 h 8.10379 v -9.37142 h 4.75362 c 7.74161,0 11.68033,-5.65907 11.68033,-11.36342 0,-5.65907 -3.89345,-11.31814 -11.7256,-11.31814 h -12.81214 z m 8.10379,-16.56976 v -7.9227 h 4.70835 c 4.88944,-0.0453 4.88944,7.96797 0,7.9227 z"/><path style="font-style:normal;font-variant:normal;font-weight:900;font-stretch:normal;font-size:45.2726px;line-height:.25;font-family:'Uni Sans';-inkscape-font-specification:'Uni Sans Heavy';letter-spacing:2.80441px;word-spacing:0;fill:#ff4b48;fill-opacity:1;stroke:none;stroke-width:1.07227;stroke-miterlimit:4;stroke-dasharray:none;stroke-opacity:1" id="path5596-0" d="m 810.56366,165.21289 v -12.63105 l 11.22759,-19.42193 h -9.50724 l -5.79488,11.77087 -5.79489,-11.77087 h -9.4167 l 11.18233,19.42193 v 12.63105 z"/><path style="font-style:normal;font-variant:normal;font-weight:900;font-stretch:normal;font-size:45.2726px;line-height:.25;font-family:'Uni Sans';-inkscape-font-specification:'Uni Sans Heavy';letter-spacing:2.80441px;word-spacing:0;fill:#ff4b48;fill-opacity:1;stroke:none;stroke-width:1.07227;stroke-miterlimit:4;stroke-dasharray:none;stroke-opacity:1" id="path5598-9" d="m 849.96174,140.81098 v -7.69634 h -25.21682 v 7.69634 h 8.51125 v 24.40191 h 8.19433 v -24.40191 z"/><path style="font-style:normal;font-variant:normal;font-weight:900;font-stretch:normal;font-size:45.2726px;line-height:.25;font-family:'Uni Sans';-inkscape-font-specification:'Uni Sans Heavy';letter-spacing:2.80441px;word-spacing:0;fill:#ff4b48;fill-opacity:1;stroke:none;stroke-width:1.07227;stroke-miterlimit:4;stroke-dasharray:none;stroke-opacity:1" id="path5600-3" d="m 864.12674,153.12512 h 9.2356 v 12.08777 h 8.14907 v -32.05298 h -8.14907 v 12.13305 h -9.2356 v -12.13305 h -8.14906 v 32.05298 h 8.14906 z"/><path style="font-style:normal;font-variant:normal;font-weight:900;font-stretch:normal;font-size:45.2726px;line-height:.25;font-family:'Uni Sans';-inkscape-font-specification:'Uni Sans Heavy';letter-spacing:2.80441px;word-spacing:0;fill:#ff4b48;fill-opacity:1;stroke:none;stroke-width:1.07227;stroke-miterlimit:4;stroke-dasharray:none;stroke-opacity:1" id="path5602-6" d="m 888.6068,154.66438 c 0,7.33416 6.65507,11.00124 13.31014,11.00124 6.65506,0 13.26486,-3.66708 13.26486,-11.00124 v -10.95596 c 0,-7.33416 -6.65507,-11.00123 -13.31014,-11.00123 -6.65506,0 -13.26486,3.6218 -13.26486,11.00123 z m 8.10379,-10.95596 c 0,-2.35417 2.53526,-3.6218 5.07053,-3.6218 2.62581,0 5.29689,1.13181 5.29689,3.6218 v 10.95596 c 0,2.3089 -2.58054,3.48599 -5.16107,3.48599 -2.58054,0 -5.20635,-1.13181 -5.20635,-3.48599 z"/><path style="font-style:normal;font-variant:normal;font-weight:900;font-stretch:normal;font-size:45.2726px;line-height:.25;font-family:'Uni Sans';-inkscape-font-specification:'Uni Sans Heavy';letter-spacing:2.80441px;word-spacing:0;fill:#ff4b48;fill-opacity:1;stroke:none;stroke-width:1.07227;stroke-miterlimit:4;stroke-dasharray:none;stroke-opacity:1" id="path5604-0" d="m 922.24466,165.21289 h 8.10379 v -12.81214 l -1.04127,-6.20234 0.22636,-0.0453 2.8069,6.4287 7.24361,12.63105 h 8.19434 v -32.05298 h -8.05852 l -0.003,13.84994 c 0,0 0.8633,6.20581 0.90857,6.20581 l -0.22636,0.0453 -2.71635,-6.4287 -7.74161,-13.67232 h -7.69634 z"/></g><g style="font-style:normal;font-variant:normal;font-weight:500;font-stretch:normal;font-size:84.3073px;line-height:1.25;font-family:Ubuntu;-inkscape-font-specification:'Ubuntu Medium';letter-spacing:0;word-spacing:0;fill:#009b50;fill-opacity:1;stroke:none;stroke-width:2.10768;stroke-opacity:1" id="text6244-6" aria-label="DISCORD" transform="matrix(0.81311015,0,0,0.81311015,-67.59695,106.80071)"><path style="font-style:normal;font-variant:normal;font-weight:900;font-stretch:normal;font-family:'Uni Sans';-inkscape-font-specification:'Uni Sans Heavy';letter-spacing:1.80975px;fill:#009b50;fill-opacity:1;stroke:none;stroke-width:2.10768;stroke-opacity:1" id="path15422-2" d="m 204.75125,111.64689 v 59.68958 h 22.34144 c 11.97164,0.0843 23.18452,-5.90151 23.18452,-19.6436 v -20.06515 c 0,-13.9107 -11.21288,-19.98083 -23.18452,-19.98083 z m 15.17532,45.52595 v -31.44663 h 7.67197 c 5.05844,0 7.50335,2.44491 7.50335,6.32305 v 18.63192 c 0,3.87813 -2.36061,6.49166 -7.50335,6.49166 z"/><path style="font-style:normal;font-variant:normal;font-weight:900;font-stretch:normal;font-family:'Uni Sans';-inkscape-font-specification:'Uni Sans Heavy';letter-spacing:1.80975px;fill:#009b50;fill-opacity:1;stroke:none;stroke-width:2.10768;stroke-opacity:1" id="path15424-6" d="m 275.33206,111.64689 h -15.09101 v 59.68958 h 15.09101 z"/><path style="font-style:normal;font-variant:normal;font-weight:900;font-stretch:normal;font-family:'Uni Sans';-inkscape-font-specification:'Uni Sans Heavy';letter-spacing:1.80975px;fill:#009b50;fill-opacity:1;stroke:none;stroke-width:2.10768;stroke-opacity:1" id="path15426-1" d="m 283.7191,161.38821 c 5.56429,7.16612 13.15194,10.79133 20.31807,10.79133 10.95995,0 23.1002,-6.32304 23.60605,-17.87315 0.67445,-14.66947 -9.94827,-18.37899 -20.57099,-20.31806 -4.6369,-1.01169 -7.75627,-2.69784 -7.92489,-5.56428 0.25292,-6.9132 10.95995,-7.16613 17.1987,-0.50585 l 9.86395,-7.58766 c -6.15443,-7.50335 -13.15194,-9.52672 -20.40237,-9.52672 -10.95995,0 -21.58267,6.15443 -21.58267,17.87315 0,11.38149 8.76796,17.45161 18.37899,18.96914 4.88983,0.67446 10.3698,2.61353 10.20119,5.98582 -0.42154,6.40736 -13.57348,6.07013 -19.5593,-1.1803 z"/><path style="font-style:normal;font-variant:normal;font-weight:900;font-stretch:normal;font-family:'Uni Sans';-inkscape-font-specification:'Uni Sans Heavy';letter-spacing:1.80975px;fill:#009b50;fill-opacity:1;stroke:none;stroke-width:2.10768;stroke-opacity:1" id="path15428-8" d="m 366.41778,152.70455 c -3.28799,8.26212 -16.77716,6.23875 -16.77716,-0.92738 v -20.57098 c 0,-7.41905 13.32056,-9.10519 17.36731,-1.68615 l 12.30887,-4.97413 c -4.80552,-10.62272 -13.65779,-13.74209 -20.99252,-13.74209 -11.97164,0 -23.77467,6.9132 -23.77467,20.40237 v 20.57098 c 0,13.57348 11.80303,20.40237 23.52174,20.40237 7.50336,0 16.52424,-3.70952 21.49837,-13.40486 z"/><path style="font-style:normal;font-variant:normal;font-weight:900;font-stretch:normal;font-family:'Uni Sans';-inkscape-font-specification:'Uni Sans Heavy';letter-spacing:1.80975px;fill:#009b50;fill-opacity:1;stroke:none;stroke-width:2.10768;stroke-opacity:1" id="path15430-7" d="m 385.42885,151.69287 c 0,13.65778 12.39318,20.48667 24.78636,20.48667 12.39317,0 24.70204,-6.82889 24.70204,-20.48667 v -20.40238 c 0,-13.65778 -12.39317,-20.48667 -24.78635,-20.48667 -12.39318,0 -24.70205,6.74458 -24.70205,20.48667 z m 15.09101,-20.40238 c 0,-4.38398 4.72121,-6.74458 9.44242,-6.74458 4.88983,0 9.86396,2.10768 9.86396,6.74458 v 20.40238 c 0,4.29967 -4.80552,6.49166 -9.61103,6.49166 -4.80552,0 -9.69535,-2.10768 -9.69535,-6.49166 z"/><path style="font-style:normal;font-variant:normal;font-weight:900;font-stretch:normal;font-family:'Uni Sans';-inkscape-font-specification:'Uni Sans Heavy';letter-spacing:1.80975px;fill:#009b50;fill-opacity:1;stroke:none;stroke-width:2.10768;stroke-opacity:1" id="path15432-9" d="m 476.44101,171.33647 h 18.80054 l -16.27132,-20.48668 c 7.25043,-2.27629 11.71872,-8.51504 11.71872,-19.5593 -0.33723,-13.99501 -9.86396,-19.6436 -22.17283,-19.6436 h -23.85897 v 59.68958 h 15.25963 v -18.96915 h 2.69783 z M 459.91678,139.384 v -13.65779 h 8.85227 c 9.52672,0 9.52672,13.65779 0,13.65779 z"/><path style="font-style:normal;font-variant:normal;font-weight:900;font-stretch:normal;font-family:'Uni Sans';-inkscape-font-specification:'Uni Sans Heavy';letter-spacing:1.80975px;fill:#009b50;fill-opacity:1;stroke:none;stroke-width:2.10768;stroke-opacity:1" id="path15434-2" d="m 500.97028,111.64689 v 59.68958 h 22.34144 c 11.97164,0.0843 23.18451,-5.90151 23.18451,-19.6436 v -20.06515 c 0,-13.9107 -11.21287,-19.98083 -23.18451,-19.98083 z m 15.17532,45.52595 v -31.44663 h 7.67196 c 5.05844,0 7.50335,2.44491 7.50335,6.32305 v 18.63192 c 0,3.87813 -2.3606,6.49166 -7.50335,6.49166 z"/></g><g id="g1120" transform="translate(-169.93275,-176.47114)"><path id="path3952" d="m 245.13289,365.39711 a 67.129498,67.129498 0 0 1 -67.1295,67.12956 67.129498,67.129498 0 0 1 -67.1295,-67.12956 67.129498,67.129498 0 0 1 67.1295,-67.12944 67.129498,67.129498 0 0 1 67.1295,67.12944 z" style="fill:#e7d363;fill-opacity:1;stroke:#303136;stroke-width:0;stroke-linecap:square;stroke-linejoin:bevel"/><ellipse style="fill:#000;fill-opacity:1;stroke:none;stroke-width:0;stroke-linecap:square;stroke-linejoin:bevel;stroke-miterlimit:4;stroke-dasharray:none;stroke-opacity:1" id="path4353-3-9" cx="178.003" cy="365.397" rx="63.183" ry="62.816"/><g id="g4137-5-7-3" transform="matrix(0.72728209,0,0,0.72728209,102.86509,268.74986)"><path id="path5041-2-9-5-1" d="m 128.84592,72.794047 -4.579,1.316723 c -4.86437,-0.718386 -9.85268,-1.033551 -14.68296,-0.998036 -5.37261,0.0398 -10.545608,0.477255 -15.082478,1.273197 -1.472409,0.259322 -2.804641,0.551572 -4.022461,0.875226 H 76.19481 v 7.482168 h 1.790869 v 3.064067 h 1.107633 c -0.254446,1.478148 -0.352108,3.104042 -0.352108,4.895354 V 92.29463 H 72.61307 l -0.876002,4.377682 7.004136,5.975008 v 0.0342 h 31.519776 v 3.97971 H 78.741204 66.921774 c -9.153334,0 -17.192352,5.492 -19.699569,15.91885 -2.905189,11.93913 -3.02458,19.42145 0,31.91774 0.197927,0.82704 0.422056,1.63108 0.670024,2.4127 l -0.471039,4.15384 5.311209,4.5961 c 2.798512,2.98889 6.515219,4.75622 11.244234,4.75622 H 74.801911 V 156.0897 c 0,-10.34725 8.994146,-19.50058 19.699571,-19.50058 h 31.518998 c 8.75536,0 15.7595,-7.2039 15.7595,-15.95926 V 90.702746 c 0,-5.133683 -2.61942,-9.484116 -6.57275,-12.445926 z m 30.56448,30.882403 -5.69129,2.94514 h -7.99906 v 0.0396 4.09941 9.82957 c 0,10.82482 -9.19314,19.89856 -19.69957,19.89856 H 94.541124 c -8.635972,0 -15.759503,7.3623 -15.759503,15.95848 v 29.88825 c 0,8.51658 7.441908,13.53086 15.759503,15.95848 9.989076,2.90519 19.540226,3.46235 31.479356,0 7.91962,-2.26844 15.7595,-6.88474 15.7595,-15.95848 v -11.10355 -0.83559 -0.0404 h -0.0474 l -4.6645,-3.97971 h 4.71192 15.7595 c 9.15333,0 12.5765,-6.36754 15.76027,-15.91885 3.30316,-9.82988 3.14397,-19.30128 0,-31.91696 -1.4417,-5.76681 -3.72203,-10.63001 -7.54046,-13.41132 z m -49.10978,66.69979 h 22.88334 v 3.97971 h -22.88334 z" style="display:inline;fill:#7e7e7e;fill-opacity:.254619;stroke:none;stroke-width:.5;stroke-miterlimit:4;stroke-dasharray:none;stroke-opacity:1"/><path style="display:inline;fill:url(#linearGradient2140-8-6-8);fill-opacity:1;stroke:none;stroke-width:1.1;stroke-miterlimit:4;stroke-dasharray:none;stroke-opacity:1" id="path1948-2-9-9" d="m 102.54019,67.103045 c -5.372612,0.0398 -10.546236,0.477565 -15.083106,1.273507 -13.33203,2.348029 -15.759654,7.243073 -15.759654,16.316815 v 11.978929 h 31.51931 v 3.979714 H 71.69743 59.87769 c -9.153336,0 -17.192351,5.492 -19.699569,15.91884 -2.905188,11.93913 -3.02458,19.42099 0,31.91728 2.228638,9.31252 7.601247,15.91884 16.754583,15.91884 h 10.824813 v -14.32696 c 0,-10.34725 8.994146,-19.50058 19.699567,-19.50058 h 31.479506 c 8.75537,0 15.75966,-7.20328 15.75966,-15.95864 V 84.693367 c 0,-8.516582 -7.20328,-14.884119 -15.75966,-16.316815 -5.37261,-0.915333 -10.984,-1.313304 -16.3964,-1.273507 z m -17.033164,9.630899 c 3.263362,0 5.929768,2.706203 5.929768,6.009365 0,3.30316 -2.666406,5.969566 -5.929768,5.969566 -3.263363,0 -5.929769,-2.666406 -5.929769,-5.969566 0,-3.342959 2.666406,-6.009365 5.929769,-6.009365 z" class="st2"/><path style="display:inline;fill:url(#linearGradient2148-2-7-3);fill-opacity:1;stroke:none;stroke-width:1.1;stroke-miterlimit:4;stroke-dasharray:none;stroke-opacity:1" id="path1950-28-2-4" d="m 138.67596,100.65201 v 13.92898 c 0,10.82482 -9.19313,19.89856 -19.69957,19.89856 H 87.496881 c -8.635972,0 -15.759654,7.36246 -15.759654,15.95863 v 29.88763 c 0,8.51658 7.442059,13.53102 15.759654,15.95864 9.989073,2.90519 19.540379,3.46235 31.479509,0 7.91962,-2.26844 15.75965,-6.8849 15.75965,-15.95864 v -11.97893 h -31.47951 v -3.97971 h 31.47951 15.75966 c 9.15333,0 12.57588,-6.36754 15.75965,-15.91884 3.30316,-9.82989 3.14397,-19.3016 0,-31.91728 -2.26843,-9.07374 -6.60632,-15.91884 -15.75965,-15.91884 h -11.81974 z m -17.70971,75.69409 c 3.26336,0 5.92976,2.66641 5.92976,5.96957 0,3.30316 -2.6664,6.00936 -5.92976,6.00936 -3.26337,0 -5.92977,-2.7062 -5.92977,-6.00936 0,-3.30316 2.6664,-5.96957 5.92977,-5.96957 z" class="st3"/></g></g></g></svg>