<svg xmlns="http://www.w3.org/2000/svg" xmlns:osb="http://www.openswatchbook.org/uri/2009/osb" xmlns:svg="http://www.w3.org/2000/svg" xmlns:xlink="http://www.w3.org/1999/xlink" style="enable-background:new 0 0 438 438" id="svg6016" x="0" y="0" version="1.1" viewBox="0 0 438 438" xml:space="preserve"><metadata id="metadata3327"/><defs id="defs3325"><linearGradient id="linearGradient4116" osb:paint="solid"><stop style="stop-color:#000;stop-opacity:1" id="stop4114" offset="0"/></linearGradient><linearGradient id="linearGradient2140-8-6" x1="47.892" x2="115.197" y1="156.911" y2="47.535" gradientUnits="userSpaceOnUse" xlink:href="#linearGradient2138"/><linearGradient id="linearGradient2138"><stop style="stop-color:#008243;stop-opacity:1" id="stop2134" offset="0"/><stop style="stop-color:#00cf6b;stop-opacity:1" id="stop2136" offset="1"/></linearGradient><linearGradient id="linearGradient2148-2-7" x1="74.802" x2="165.759" y1="170.417" y2="109.129" gradientUnits="userSpaceOnUse" xlink:href="#linearGradient2146"/><linearGradient id="linearGradient2146"><stop style="stop-color:#ff2e2b;stop-opacity:1" id="stop2142" offset="0"/><stop style="stop-color:#ff6361;stop-opacity:.99991107" id="stop2144" offset="1"/></linearGradient></defs><style id="style3317" type="text/css">.st2{fill:#6e6f71}.st3{fill:#fff}</style><path id="path3952" d="M 438,219 A 219,219 0 0 1 219,438 219,219 0 0 1 5e-7,219 219,219 0 0 1 219,0 219,219 0 0 1 438,219 Z" style="fill:#e7d363;fill-opacity:1;stroke:#303136;stroke-width:0;stroke-linecap:square;stroke-linejoin:bevel"/><path id="rect1995-37-9-6" d="M 49.82391,-0.49284 C 22.22141,-0.49284 7e-5,21.72847 7e-5,49.33101 V 218.50713 A 219.00031,219.00031 0 0 1 219.00005,-0.49284 Z m 169.17614,0 A 219.00031,219.00031 0 0 1 438,218.0633 V 49.33101 C 438,21.72847 415.77866,-0.49284 388.17616,-0.49284 Z M 7e-5,218.50713 v 169.17613 c 0,27.60248 22.22134,49.82383 49.82384,49.82383 H 219.00005 A 219.00031,219.00031 0 0 1 7e-5,218.50713 Z M 219.00005,437.50709 H 388.17616 C 415.77866,437.50709 438,415.28574 438,387.68326 V 219 A 219.00031,219.00031 0 0 1 219.00005,437.50709 Z" style="mix-blend-mode:normal;fill:#000;fill-opacity:1;stroke:none;stroke-width:.944244;stroke-linecap:butt;stroke-linejoin:miter;stroke-miterlimit:4;stroke-dasharray:none;stroke-dashoffset:0;stroke-opacity:1"/><ellipse style="fill:#000;fill-opacity:1;stroke:none;stroke-width:0;stroke-linecap:square;stroke-linejoin:bevel;stroke-miterlimit:4;stroke-dasharray:none;stroke-opacity:1" id="path4353-3" cx="219" cy="219" rx="206.125" ry="204.929"/><g id="g4137-5-7" transform="matrix(2.3726496,0,0,2.3726496,-26.127516,-96.297603)"><path id="path5041-2-9-5" d="m 128.84592,72.794047 -4.579,1.316723 c -4.86437,-0.718386 -9.85268,-1.033551 -14.68296,-0.998036 -5.37261,0.0398 -10.545608,0.477255 -15.082478,1.273197 -1.472409,0.259322 -2.804641,0.551572 -4.022461,0.875226 H 76.19481 v 7.482168 h 1.790869 v 3.064067 h 1.107633 c -0.254446,1.478148 -0.352108,3.104042 -0.352108,4.895354 V 92.29463 H 72.61307 l -0.876002,4.377682 7.004136,5.975008 v 0.0342 h 31.519776 v 3.97971 H 78.741204 66.921774 c -9.153334,0 -17.192352,5.492 -19.699569,15.91885 -2.905189,11.93913 -3.02458,19.42145 0,31.91774 0.197927,0.82704 0.422056,1.63108 0.670024,2.4127 l -0.471039,4.15384 5.311209,4.5961 c 2.798512,2.98889 6.515219,4.75622 11.244234,4.75622 H 74.801911 V 156.0897 c 0,-10.34725 8.994146,-19.50058 19.699571,-19.50058 h 31.518998 c 8.75536,0 15.7595,-7.2039 15.7595,-15.95926 V 90.702746 c 0,-5.133683 -2.61942,-9.484116 -6.57275,-12.445926 z m 30.56448,30.882403 -5.69129,2.94514 h -7.99906 v 0.0396 4.09941 9.82957 c 0,10.82482 -9.19314,19.89856 -19.69957,19.89856 H 94.541124 c -8.635972,0 -15.759503,7.3623 -15.759503,15.95848 v 29.88825 c 0,8.51658 7.441908,13.53086 15.759503,15.95848 9.989076,2.90519 19.540226,3.46235 31.479356,0 7.91962,-2.26844 15.7595,-6.88474 15.7595,-15.95848 v -11.10355 -0.83559 -0.0404 h -0.0474 l -4.6645,-3.97971 h 4.71192 15.7595 c 9.15333,0 12.5765,-6.36754 15.76027,-15.91885 3.30316,-9.82988 3.14397,-19.30128 0,-31.91696 -1.4417,-5.76681 -3.72203,-10.63001 -7.54046,-13.41132 z m -49.10978,66.69979 h 22.88334 v 3.97971 h -22.88334 z" style="display:inline;fill:#7e7e7e;fill-opacity:.254619;stroke:none;stroke-width:.5;stroke-miterlimit:4;stroke-dasharray:none;stroke-opacity:1"/><path style="display:inline;fill:url(#linearGradient2140-8-6);fill-opacity:1;stroke:none;stroke-width:1.1;stroke-miterlimit:4;stroke-dasharray:none;stroke-opacity:1" id="path1948-2-9" d="m 102.54019,67.103045 c -5.372612,0.0398 -10.546236,0.477565 -15.083106,1.273507 -13.33203,2.348029 -15.759654,7.243073 -15.759654,16.316815 v 11.978929 h 31.51931 v 3.979714 H 71.69743 59.87769 c -9.153336,0 -17.192351,5.492 -19.699569,15.91884 -2.905188,11.93913 -3.02458,19.42099 0,31.91728 2.228638,9.31252 7.601247,15.91884 16.754583,15.91884 h 10.824813 v -14.32696 c 0,-10.34725 8.994146,-19.50058 19.699567,-19.50058 h 31.479506 c 8.75537,0 15.75966,-7.20328 15.75966,-15.95864 V 84.693367 c 0,-8.516582 -7.20328,-14.884119 -15.75966,-16.316815 -5.37261,-0.915333 -10.984,-1.313304 -16.3964,-1.273507 z m -17.033164,9.630899 c 3.263362,0 5.929768,2.706203 5.929768,6.009365 0,3.30316 -2.666406,5.969566 -5.929768,5.969566 -3.263363,0 -5.929769,-2.666406 -5.929769,-5.969566 0,-3.342959 2.666406,-6.009365 5.929769,-6.009365 z" class="st2"/><path style="display:inline;fill:url(#linearGradient2148-2-7);fill-opacity:1;stroke:none;stroke-width:1.1;stroke-miterlimit:4;stroke-dasharray:none;stroke-opacity:1" id="path1950-28-2" d="m 138.67596,100.65201 v 13.92898 c 0,10.82482 -9.19313,19.89856 -19.69957,19.89856 H 87.496881 c -8.635972,0 -15.759654,7.36246 -15.759654,15.95863 v 29.88763 c 0,8.51658 7.442059,13.53102 15.759654,15.95864 9.989073,2.90519 19.540379,3.46235 31.479509,0 7.91962,-2.26844 15.75965,-6.8849 15.75965,-15.95864 v -11.97893 h -31.47951 v -3.97971 h 31.47951 15.75966 c 9.15333,0 12.57588,-6.36754 15.75965,-15.91884 3.30316,-9.82989 3.14397,-19.3016 0,-31.91728 -2.26843,-9.07374 -6.60632,-15.91884 -15.75965,-15.91884 h -11.81974 z m -17.70971,75.69409 c 3.26336,0 5.92976,2.66641 5.92976,5.96957 0,3.30316 -2.6664,6.00936 -5.92976,6.00936 -3.26337,0 -5.92977,-2.7062 -5.92977,-6.00936 0,-3.30316 2.6664,-5.96957 5.92977,-5.96957 z" class="st3"/></g></svg>