<svg xmlns="http://www.w3.org/2000/svg" xmlns:xlink="http://www.w3.org/1999/xlink" width="100%" height="100%" version="1.1" viewBox="0 0 128 128" xml:space="preserve" style="fill-rule:evenodd;clip-rule:evenodd;stroke-linecap:round;stroke-linejoin:round;stroke-miterlimit:1.5"><g id="Artboard1" transform="matrix(0.501961,0,0,0.501961,0,0)"><rect width="255" height="255" x="0" y="0" style="fill:none"/><g><g transform="matrix(1.00392,0,0,1.00392,2.22045e-16,0) matrix(0.996094,0,0,0.996094,0,0)"><circle cx="127.5" cy="127.5" r="127.5" style="fill:#e63645"/></g><g><path d="M130.215,214.885L130.215,54.076" transform="matrix(1.00392,0,0,1.00392,2.22045e-16,0) matrix(0.608794,0.608794,-0.570062,0.570062,123.894,-28.9349)" style="fill:none;stroke:#fff;stroke-width:44.61px"/></g><g><path d="M130.215,214.885L130.215,54.076" transform="matrix(1.00392,0,0,1.00392,2.22045e-16,0) matrix(0.608794,-0.608794,0.570062,0.570062,-29.431,129.614)" style="fill:none;stroke:#fff;stroke-width:44.61px"/></g></g></g></svg>