<svg xmlns="http://www.w3.org/2000/svg" xmlns:xlink="http://www.w3.org/1999/xlink" viewBox="0 0 128 128"><defs><path id="sparkle" fill="#fff" d="M64,103.5c2.3,0,4.2-2.6,4.2-5.8c0-3.1-3.9-10.2-4.1-10.5L64,87l-0.1,0.2c-0.2,0.3-4.1,7.4-4.1,10.5C59.8,100.9,61.7,103.5,64,103.5z"/></defs><rect id="square" width="100" height="100" x="14" y="14" fill="#68c290" rx="10"/><polygon id="star" fill="#fff" points="83 64 92.316 84.572 69.871 82.07 53.184 97.287 48.629 75.168 29 64 48.629 52.832 53.184 30.713 69.871 45.93 92.316 43.428 83 64" transform="rotate(18, 64, 64)"/></svg>