<svg xmlns="http://www.w3.org/2000/svg" xmlns:xlink="http://www.w3.org/1999/xlink" width="100%" height="100%" version="1.1" viewBox="0 0 512 512" xml:space="preserve" style="fill-rule:evenodd;clip-rule:evenodd;stroke-linejoin:round;stroke-miterlimit:2"><g><g><g transform="matrix(1,0,0,1,-5856.25,-1633.76) matrix(0.825702,0,0,0.729787,1420.75,609.764) matrix(7.78535e-17,1.43855,-1.27144,8.80857e-17,6332.9,-5623.79)"><rect width="487.696" height="487.696" x="4884.75" y="268.209" style="fill:none"/><clipPath id="_clip1"><rect width="487.696" height="487.696" x="4884.75" y="268.209"/></clipPath><g clip-path="url(#_clip1)"><g><path d="M6884.25,897.487L7640.16,897.487L7640.16,1369.93L7640.16,1369.93C7561.88,1369.93 7498.43,1433.38 7498.43,1511.66C7498.43,1511.66 7498.43,1511.66 7498.43,1511.66L7025.99,1511.66L7025.99,1511.66C7025.99,1433.38 6962.53,1369.93 6884.26,1369.93L6884.25,1369.93L6884.25,897.487Z" transform="matrix(3.9506e-17,-0.645182,0.645182,3.9506e-17,4397.15,5197.5)" style="fill:#7d6a5a"/></g></g></g></g></g></svg>