<svg xmlns="http://www.w3.org/2000/svg" xmlns:xlink="http://www.w3.org/1999/xlink" width="100%" height="100%" version="1.1" viewBox="0 0 255 255" xml:space="preserve" style="fill-rule:evenodd;clip-rule:evenodd;stroke-linejoin:round;stroke-miterlimit:2"><g><g transform="matrix(1,0,0,1,-0.509,-0.654) matrix(1,0,0,1,-645,-333)"><g id="_6" transform="matrix(1,0,0,1,-567.191,333.654)"><rect width="255" height="255" x="1212.7" y="0" style="fill:none"/><g><g transform="matrix(1,0,0,1,1212.7,0)"><g id="Background"><path id="Background1" d="M255,77.281C255,34.628 220.372,0 177.719,0L77.281,0C34.628,0 0,34.628 0,77.281L0,177.719C0,220.372 34.628,255 77.281,255L177.719,255C220.372,255 255,220.372 255,177.719L255,77.281Z" style="fill:#7289da"/></g></g></g></g></g></g></svg>