<svg xmlns="http://www.w3.org/2000/svg" xmlns:xlink="http://www.w3.org/1999/xlink" width="100%" height="100%" version="1.1" viewBox="0 0 256 256" xml:space="preserve" style="fill-rule:evenodd;clip-rule:evenodd;stroke-linejoin:round;stroke-miterlimit:2"><g transform="matrix(1,0,0,1,-645,-333)"><g id="_6" transform="matrix(1,0,0,1,-567.191,333.654)"><rect width="255" height="255" x="1212.7" y="0" style="fill:none"/><clipPath id="_clip1"><rect width="255" height="255" x="1212.7" y="0"/></clipPath><g clip-path="url(#_clip1)"><g transform="matrix(1,0,0,1,1212.7,0)"><g id="Background"><path id="Background1" d="M255,77.281C255,34.628 220.372,0 177.719,0L77.281,0C34.628,0 0,34.628 0,77.281L0,177.719C0,220.372 34.628,255 77.281,255L177.719,255C220.372,255 255,220.372 255,177.719L255,77.281Z" style="fill:#7289da"/></g></g><g id="Dot" transform="matrix(1,0,0,1,984.005,302.566)"><circle id="Dot1" cx="410.412" cy="-245.285" r="26.342" style="fill:#fff"/></g><g id="Dot2" transform="matrix(1,0,0,1,984.005,443.004)"><circle id="Dot3" cx="410.412" cy="-245.285" r="26.342" style="fill:#fff"/></g><g id="Dot4" transform="matrix(1,0,0,1,984.005,372.785)"><circle id="Dot5" cx="410.412" cy="-245.285" r="26.342" style="fill:#fff"/></g><g id="Dot6" transform="matrix(1,0,0,1,875.567,302.566)"><circle id="Dot7" cx="410.412" cy="-245.285" r="26.342" style="fill:#fff"/></g><g id="Dot8" transform="matrix(1,0,0,1,875.567,443.004)"><circle id="Dot9" cx="410.412" cy="-245.285" r="26.342" style="fill:#fff"/></g><g id="Dot10" transform="matrix(1,0,0,1,875.567,372.785)"><circle id="Dot11" cx="410.412" cy="-245.285" r="26.342" style="fill:#fff"/></g></g></g></g></svg>