<svg xmlns="http://www.w3.org/2000/svg" xmlns:osb="http://www.openswatchbook.org/uri/2009/osb" xmlns:svg="http://www.w3.org/2000/svg" xmlns:xlink="http://www.w3.org/1999/xlink" id="svg8" width="512" height="512" version="1.1" viewBox="0 0 135.467 135.467"><defs id="defs2"><linearGradient id="linearGradient2733" osb:paint="gradient"><stop id="stop2729" offset="0" style="stop-color:#225f00;stop-opacity:1"/><stop id="stop2731" offset="1" style="stop-color:#8fe247;stop-opacity:1"/></linearGradient><linearGradient id="linearGradient2372"><stop style="stop-color:#005a35;stop-opacity:1" id="stop2368" offset="0"/><stop style="stop-color:#22b472;stop-opacity:1" id="stop2370" offset="1"/></linearGradient><linearGradient id="linearGradient1450"><stop style="stop-color:#f0f0f0;stop-opacity:1" id="stop1446" offset="0"/><stop style="stop-color:#010301;stop-opacity:1" id="stop1448" offset="1"/></linearGradient><linearGradient id="linearGradient1485"><stop id="stop1481" offset="0" style="stop-color:#e9e9e9;stop-opacity:1"/><stop id="stop1483" offset="1" style="stop-color:#212121;stop-opacity:1"/></linearGradient><linearGradient id="linearGradient1458"><stop id="stop1454" offset="0" style="stop-color:#02ac74;stop-opacity:1"/><stop id="stop1456" offset="1" style="stop-color:#054110;stop-opacity:1"/></linearGradient><linearGradient id="linearGradient1294"><stop id="stop1304" offset="0" style="stop-color:#040259;stop-opacity:1"/><stop id="stop1306" offset="1" style="stop-color:#0a80ff;stop-opacity:1"/></linearGradient><linearGradient id="linearGradient4671-3"><stop id="stop4673" offset="0" style="stop-color:#faab00;stop-opacity:1"/><stop id="stop4675" offset="1" style="stop-color:#ffd846;stop-opacity:1"/></linearGradient><linearGradient id="linearGradient4671-0"><stop style="stop-color:#ffd43b;stop-opacity:1" id="stop4673-3" offset="0"/><stop style="stop-color:#ffe873;stop-opacity:1" id="stop4675-6" offset="1"/></linearGradient><linearGradient id="linearGradient1345"><stop style="stop-color:#030060;stop-opacity:1" id="stop1341" offset="0"/><stop style="stop-color:#a80aff;stop-opacity:1" id="stop1343" offset="1"/></linearGradient><linearGradient id="linearGradient3526"><stop style="stop-color:#1d1d1d;stop-opacity:1" id="stop3522" offset="0"/><stop style="stop-color:#4c4c4c;stop-opacity:1" id="stop3524" offset="1"/></linearGradient><linearGradient id="linearGradient3284"><stop style="stop-color:#f4b900;stop-opacity:1" id="stop3280" offset="0"/><stop style="stop-color:#e25947;stop-opacity:1" id="stop3282" offset="1"/></linearGradient><linearGradient id="linearGradient3518"><stop id="stop3514" offset="0" style="stop-color:#bf0202;stop-opacity:1"/><stop id="stop3516" offset="1" style="stop-color:#ef2138;stop-opacity:1"/></linearGradient><linearGradient id="linearGradient1890"><stop style="stop-color:#2361fb;stop-opacity:1" id="stop1886" offset="0"/><stop style="stop-color:#55ffb3;stop-opacity:1" id="stop1888" offset="1"/></linearGradient><linearGradient id="linearGradient2210"><stop style="stop-color:#fab200;stop-opacity:1" id="stop2206" offset="0"/><stop style="stop-color:#fffb46;stop-opacity:1" id="stop2208" offset="1"/></linearGradient><linearGradient id="linearGradient2035"><stop style="stop-color:#8505f2;stop-opacity:1" id="stop2031" offset="0"/><stop style="stop-color:#e755ff;stop-opacity:1" id="stop2033" offset="1"/></linearGradient><linearGradient id="linearGradient1840" x1="65.677" x2="95.726" y1="69.574" y2="131.495" gradientTransform="matrix(0.26458333,0,0,0.26458333,75.785807,56.485372)" gradientUnits="userSpaceOnUse" xlink:href="#linearGradient1856"/><linearGradient id="linearGradient1856"><stop style="stop-color:#7813eb;stop-opacity:1" id="stop1852" offset="0"/><stop style="stop-color:#ff558a;stop-opacity:1" id="stop1854" offset="1"/></linearGradient><linearGradient id="linearGradient1842" x1="64.358" x2="110.512" y1="62.895" y2="102.204" gradientTransform="matrix(0.26458333,0,0,0.26458333,75.785807,56.485372)" gradientUnits="userSpaceOnUse" xlink:href="#linearGradient1856"/><linearGradient id="linearGradient1844" x1="61.476" x2="94.264" y1="58.116" y2="91.716" gradientTransform="matrix(0.26458333,0,0,0.26458333,75.785807,56.485372)" gradientUnits="userSpaceOnUse" xlink:href="#linearGradient1856"/><linearGradient id="linearGradient1838" x1="-33.823" x2="81.645" y1="-43.171" y2="120.776" gradientTransform="matrix(0.26458333,0,0,0.26458333,75.785807,56.485372)" gradientUnits="userSpaceOnUse" xlink:href="#linearGradient1880"/><linearGradient id="linearGradient1880"><stop id="stop1876" offset="0" style="stop-color:#601cff;stop-opacity:1"/><stop id="stop1878" offset="1" style="stop-color:#ff558a;stop-opacity:1"/></linearGradient></defs><metadata id="metadata5"/><g id="layer1" transform="translate(0,-161.53332)" style="display:none"><rect style="opacity:1;fill:#fff;fill-opacity:1;stroke:#000;stroke-width:.14791411;stroke-linejoin:round;stroke-miterlimit:4;stroke-dasharray:none;stroke-dashoffset:0;stroke-opacity:1" id="rect1404" width="135.319" height="135.319" x=".074" y="161.607"/></g><g id="layer11"><g id="g2701" transform="matrix(4.2709756,0,0,4.2709756,-328.36774,-244.87162)"><path style="display:inline;fill:#d52819;fill-opacity:1;stroke:#000;stroke-width:0;stroke-linecap:butt;stroke-linejoin:miter;stroke-miterlimit:4;stroke-dasharray:none;stroke-opacity:1" id="path1761" d="m 82.173671,68.8778 c 0,0 -3.305165,1.872459 -4.373246,1.441868 -1.068081,-0.430591 -0.432481,0.670745 0.559378,1.122812 0.9783,0.445888 4.658049,0.744444 4.658049,0.744444 z"/><path style="display:inline;fill:#d52819;fill-opacity:1;stroke:#000;stroke-width:0;stroke-linecap:butt;stroke-linejoin:miter;stroke-miterlimit:4;stroke-dasharray:none;stroke-opacity:1" id="path1763" d="m 84.435253,71.228064 c 0,0 -4.868539,1.263426 -6.071247,0.950536 -1.20271,-0.312889 -0.603982,0.828111 0.538371,0.887828 1.220832,0.06382 6.561646,0.835618 6.561646,0.835618 z"/><path id="path1767" d="m 106.5035,70.958017 a 0.72620166,2.6141815 26.425977 0 1 -1.71715,3.257657 0.72620166,2.6141815 26.425977 0 1 -0.77678,-0.735149 0.72620166,2.6141815 26.425977 0 1 1.71551,-3.259215 0.72620166,2.6141815 26.425977 0 1 0.78041,0.728238 l -1.24845,1.267596 z m 0.6152,-0.618891 a 5.8228399,1.8174085 89.482071 0 1 0.98083,7.686518 5.8228399,1.8174085 89.482071 0 1 -2.37423,2.949489 5.8228399,1.8174085 89.482071 0 1 -0.98586,-7.680261 5.8228399,1.8174085 89.482071 0 1 2.37214,-2.965775 l -0.69137,5.325511 z m 0.97877,7.564744 A 8.6076375,13.839043 89.999998 0 1 94.258428,86.511502 8.6076375,13.839043 89.999998 0 1 80.419385,77.903867 8.6076375,13.839043 89.999998 0 1 94.258428,69.296229 8.6076375,13.839043 89.999998 0 1 108.09747,77.903864 Z M 97.075901,67.543001 a 7.7569161,7.6687693 7.9636418e-6 0 1 -7.756918,7.668769 7.7569161,7.6687693 7.9636418e-6 0 1 -7.756915,-7.668769 7.7569161,7.6687693 7.9636418e-6 0 1 7.756917,-7.66877 7.7569161,7.6687693 7.9636418e-6 0 1 7.756916,7.66877 z" style="display:inline;fill:url(#linearGradient1838);fill-opacity:1;stroke:#fbfb00;stroke-width:0;stroke-miterlimit:4;stroke-dasharray:none;stroke-opacity:1"/><circle style="display:inline;fill:#001639;fill-opacity:1;stroke:#fbfb00;stroke-width:0;stroke-miterlimit:4;stroke-dasharray:none;stroke-opacity:1" id="circle1769" cx="86.634" cy="66.526" r="1.499"/><path style="display:inline;opacity:1;fill:url(#linearGradient1844);fill-opacity:1;stroke-width:.12402295" id="path1751" d="m 94.973246,76.853404 1.442591,-0.05194 c 1.117152,-0.04022 2.338371,-0.586723 3.10663,-1.570362 0.882823,-1.127556 1.229143,-1.823804 1.413843,-2.974614 0.13861,-0.856659 -0.32845,-1.852382 -1.337624,-1.410336 l -0.961099,0.478909 -0.931951,0.468261 c -3.433124,1.489673 -11.459042,5.208515 -2.73239,5.060087 z"/><path style="display:inline;opacity:1;fill:url(#linearGradient1842);fill-opacity:1;stroke-width:.12402295" id="path1753" d="m 97.209607,77.177747 1.4233,0.1902 c 1.102214,0.147284 2.372263,-0.192338 3.254213,-1.043418 1.01311,-0.97524 1.44347,-1.610777 1.77406,-2.726267 0.24719,-0.83018 -0.0823,-1.900475 -1.13061,-1.629347 l -1.00586,0.315913 -0.97586,0.310197 c -3.564355,0.908274 -11.92771,3.267041 -3.339244,4.582731 z"/><path style="display:inline;opacity:1;fill:url(#linearGradient1840);fill-opacity:1;stroke-width:.12402295" id="path1755" d="m 94.272194,82.919192 c 0.657586,-0.0015 1.031306,-0.08338 1.620308,-0.155869 1.734951,-0.213206 2.761019,-1.4101 3.185941,-2.240648 l 0.618935,-1.033701 -3.834675,0.507125 0.171205,-0.517754 3.753399,-0.484692 1.414483,-0.233361 c 1.10059,-0.181575 2.17089,-0.369799 3.13923,-1.250882 0.91343,-1.095853 1.35105,-1.683744 1.56851,-2.828881 0.16299,-0.852393 -0.27441,-1.866559 -1.29417,-1.461643 l -0.97286,0.44361 -0.92593,0.425958 c -1.39008,0.582424 -2.28829,0.406831 -3.635625,0.277853 0,0 -2.666332,-0.496133 -4.607208,-0.533213 -5.193682,0.442668 -7.540626,7.81158 -2.063144,8.860541 0.648127,0.126808 1.204017,0.227052 1.861601,0.225559 z m 2.753902,-1.667276 c -22.072777,7.40582 -11.036386,3.702903 0,0 z"/><ellipse style="display:inline;fill:#ff558a;fill-opacity:1;stroke:#fbfb00;stroke-width:0;stroke-miterlimit:4;stroke-dasharray:none;stroke-opacity:1" id="ellipse1757" cx="111.595" cy="56.322" rx=".568" ry=".592" transform="matrix(0.972792,0.23168024,-0.20154908,0.97947842,0,0)"/></g></g></svg>