<svg xmlns="http://www.w3.org/2000/svg" xmlns:svg="http://www.w3.org/2000/svg" xmlns:xlink="http://www.w3.org/1999/xlink" id="svg8" x="0" y="0" style="enable-background:new 0 0 532.5 532.5" enable-background="new" version="1.1" viewBox="0 0 532.5 532.5" xml:space="preserve"><metadata id="metadata1124"/><defs id="defs1122"><linearGradient id="linearGradient885"><stop style="stop-color:#fb27fb;stop-opacity:1" id="stop881" offset="0"/><stop style="stop-color:#5d32aa;stop-opacity:1" id="stop883" offset="1"/></linearGradient><linearGradient id="linearGradient866"><stop id="stop862" offset="0" style="stop-color:#889093;stop-opacity:1"/><stop id="stop864" offset="1" style="stop-color:#333;stop-opacity:1"/></linearGradient><linearGradient id="linearGradient5886"><stop style="stop-color:#37ddfc;stop-opacity:1" id="stop5882" offset="0"/><stop style="stop-color:#283df2;stop-opacity:1" id="stop5884" offset="1"/></linearGradient><linearGradient id="linearGradient5857"><stop id="stop5861" offset="0" style="stop-color:#fb10fb;stop-opacity:1"/><stop id="stop5863" offset="1" style="stop-color:#5d32aa;stop-opacity:1"/></linearGradient><radialGradient id="radialGradient5870" cx="160.669" cy="277.439" r="121.544" fx="160.669" fy="277.439" gradientTransform="matrix(1.3762111,1.035529,-1.0981508,1.459435,249.68017,-302.61524)" gradientUnits="userSpaceOnUse" xlink:href="#linearGradient885"/><radialGradient id="radialGradient5880" cx="311.492" cy="371.757" r="121.788" fx="311.492" fy="371.757" gradientTransform="matrix(0.65714315,-1.6010826,1.1278475,0.46291007,-289.75821,728.32408)" gradientUnits="userSpaceOnUse" xlink:href="#linearGradient5886"/><filter style="color-interpolation-filters:sRGB" id="filter6392" width="1.289" height="1.287" x="-.144" y="-.144"><feGaussianBlur id="feGaussianBlur6394" stdDeviation="14.628"/></filter><filter style="color-interpolation-filters:sRGB" id="filter6466" width="1.29" height="1.286" x="-.145" y="-.143"><feGaussianBlur id="feGaussianBlur6468" stdDeviation="14.7"/></filter><radialGradient id="radialGradient6470" cx="311.492" cy="371.757" r="121.788" fx="311.492" fy="371.757" gradientTransform="matrix(0.65714315,-1.6010826,1.1278475,0.46291007,-289.75821,728.32408)" gradientUnits="userSpaceOnUse" xlink:href="#linearGradient5886"/><radialGradient id="radialGradient6472" cx="160.669" cy="277.439" r="121.544" fx="160.669" fy="277.439" gradientTransform="matrix(1.3762111,1.035529,-1.0981508,1.459435,249.68017,-302.61524)" gradientUnits="userSpaceOnUse" xlink:href="#linearGradient5857"/><radialGradient id="radialGradient860" cx="160.669" cy="277.439" r="121.544" fx="160.669" fy="277.439" gradientTransform="matrix(1.3762111,1.035529,-1.0981508,1.459435,249.68017,-302.61524)" gradientUnits="userSpaceOnUse" xlink:href="#linearGradient866"/><radialGradient id="radialGradient879" cx="311.492" cy="371.757" r="121.788" fx="311.492" fy="371.757" gradientTransform="matrix(0.65714315,-1.6010826,1.1278475,0.46291007,-289.75821,728.32408)" gradientUnits="userSpaceOnUse" xlink:href="#linearGradient866"/></defs><style id="style1081" type="text/css">.st2{fill:#cad6ff}.st3{fill:#fff}</style><g id="layer4"><rect id="rect1995" width="463.862" height="463.862" x="34.319" y="34.319" ry="52.766" style="enable-background:new 0 0 532.5 532.5;display:inline;opacity:1;vector-effect:none;fill:#1c234a;fill-opacity:1;stroke:none;stroke-width:1;stroke-linecap:butt;stroke-linejoin:miter;stroke-miterlimit:4;stroke-dasharray:none;stroke-dashoffset:0;stroke-opacity:1"/></g><g id="layer2" style="display:inline;opacity:.2"><path id="path6396" d="m 355.10607,185.24814 v 35 c 0,27.2 -23.1,50 -49.5,50 h -79.1 c -21.7,0 -39.6,18.5 -39.6,40.1 v 75.1 c 0,21.4 18.7,34 39.6,40.1 25.1,7.3 49.1,8.7 79.1,0 19.9,-5.7 39.6,-17.3 39.6,-40.1 v -30.1 h -79.1 v -10 h 79.1 39.6 c 23,0 31.6,-16 39.6,-40 8.3,-24.7 7.9,-48.5 0,-80.2 -5.7,-22.8 -16.6,-40 -39.6,-40 h -29.7 z m -44.5,190.2 c 8.2,0 14.9,6.7 14.9,15 0,8.3 -6.7,15.1 -14.9,15.1 -8.2,0 -14.9,-6.8 -14.9,-15.1 0,-8.3 6.7,-15 14.9,-15 z" class="st3" transform="matrix(1.0872691,0,0,1.0872691,-24.508429,-24.387625)" style="display:inline;opacity:1;fill:url(#radialGradient6470);fill-opacity:1;filter:url(#filter6466)"/></g><g id="layer1" style="display:inline;opacity:.2"><path id="path6330" d="m 265.80078,97.164882 c -13.5,0.1 -27.24736,4.226608 -38.64736,6.226608 -33.5,5.9 -47.75789,14.61007 -44.83147,37.21674 l -1.4947,34.63991 h 85.17882 v 10 h -79.2 -29.7 c -23,0 -43.2,13.8 -49.5,40 -7.3,30 -7.6,48.8 0,80.2 5.6,23.4 19.1,40 42.1,40 l 39.90499,3.78325 -0.74735,-37.5133 c -0.51788,-25.99471 10.64354,-48.7451 37.54236,-49 l 79.84735,-0.75665 c 21.99904,-0.20846 38.19037,-19.62352 38.85265,-41.6133 l 2.24206,-74.44335 c 0.64422,-21.39006 -20.34206,-38.15665 -41.84206,-41.75665 -13.5,-2.3 -26.10529,-7.083258 -39.70529,-6.983258 z m -43.54736,31.009868 c 8.2,0 18.63676,2.26009 18.63676,10.56009 0,8.3 -8.94237,24.76367 -17.14205,24.83647 -8.07607,0.0717 -8.78044,5.27166 -21.62618,-10.4601 -5.28642,-6.4741 11.93147,-24.93646 20.13147,-24.93646 z" class="st2" transform="matrix(1.1265541,0,0,1.1127091,-28.893653,-27.351296)" style="display:inline;opacity:1;fill:url(#radialGradient6472);fill-opacity:1;filter:url(#filter6392)"/></g><g id="layer3" style="display:inline"><path style="display:inline;fill:url(#radialGradient5870);fill-opacity:1" id="path1948" d="m 264.30607,100.94814 c -13.5,0.1 -26.5,1.2 -37.9,3.2 -33.5,5.9 -39.6,18.2 -39.6,41 v 30.1 h 79.2 v 10 h -79.2 -29.7 c -23,0 -43.2,13.8 -49.5,40 -7.3,30 -7.6,48.8 0,80.2 5.6,23.4 19.1,40 42.1,40 h 27.2 v -36 c 0,-26 22.6,-49 49.5,-49 h 79.1 c 22,0 39.6,-18.1 39.6,-40.1 v -75.2 c 0,-21.4 -18.1,-37.4 -39.6,-41 -13.5,-2.3 -27.6,-3.3 -41.2,-3.2 z m -42.8,24.2 c 8.2,0 14.9,6.8 14.9,15.1 0,8.3 -6.7,15 -14.9,15 -8.2,0 -14.9,-6.7 -14.9,-15 0,-8.4 6.7,-15.1 14.9,-15.1 z" class="st2"/><path style="display:inline;fill:url(#radialGradient5880);fill-opacity:1" id="path1950" d="m 355.10607,185.24814 v 35 c 0,27.2 -23.1,50 -49.5,50 h -79.1 c -21.7,0 -39.6,18.5 -39.6,40.1 v 75.1 c 0,21.4 18.7,34 39.6,40.1 25.1,7.3 49.1,8.7 79.1,0 19.9,-5.7 39.6,-17.3 39.6,-40.1 v -30.1 h -79.1 v -10 h 79.1 39.6 c 23,0 31.6,-16 39.6,-40 8.3,-24.7 7.9,-48.5 0,-80.2 -5.7,-22.8 -16.6,-40 -39.6,-40 h -29.7 z m -44.5,190.2 c 8.2,0 14.9,6.7 14.9,15 0,8.3 -6.7,15.1 -14.9,15.1 -8.2,0 -14.9,-6.8 -14.9,-15.1 0,-8.3 6.7,-15 14.9,-15 z" class="st3"/></g><g style="display:none" id="g877"><path id="path875" d="m 355.10607,185.24814 v 35 c 0,27.2 -23.1,50 -49.5,50 h -79.1 c -21.7,0 -39.6,18.5 -39.6,40.1 v 75.1 c 0,21.4 18.7,34 39.6,40.1 25.1,7.3 49.1,8.7 79.1,0 19.9,-5.7 39.6,-17.3 39.6,-40.1 v -30.1 h -79.1 v -10 h 79.1 39.6 c 23,0 31.6,-16 39.6,-40 8.3,-24.7 7.9,-48.5 0,-80.2 -5.7,-22.8 -16.6,-40 -39.6,-40 h -29.7 z m -44.5,190.2 c 8.2,0 14.9,6.7 14.9,15 0,8.3 -6.7,15.1 -14.9,15.1 -8.2,0 -14.9,-6.8 -14.9,-15.1 0,-8.3 6.7,-15 14.9,-15 z" class="st3" style="display:inline;opacity:.7;fill:url(#radialGradient879);fill-opacity:1"/></g><g style="display:none;opacity:1" id="g858"><path id="path854" d="m 264.30607,100.94814 c -13.5,0.1 -26.5,1.2 -37.9,3.2 -33.5,5.9 -39.6,18.2 -39.6,41 v 30.1 h 79.2 v 10 h -79.2 -29.7 c -23,0 -43.2,13.8 -49.5,40 -7.3,30 -7.6,48.8 0,80.2 5.6,23.4 19.1,40 42.1,40 h 27.2 v -36 c 0,-26 22.6,-49 49.5,-49 h 79.1 c 22,0 39.6,-18.1 39.6,-40.1 v -75.2 c 0,-21.4 -18.1,-37.4 -39.6,-41 -13.5,-2.3 -27.6,-3.3 -41.2,-3.2 z m -42.8,24.2 c 8.2,0 14.9,6.8 14.9,15.1 0,8.3 -6.7,15 -14.9,15 -8.2,0 -14.9,-6.7 -14.9,-15 0,-8.4 6.7,-15.1 14.9,-15.1 z" class="st2" style="display:inline;opacity:.7;fill:url(#radialGradient860);fill-opacity:1"/></g></svg>