<svg xmlns="http://www.w3.org/2000/svg" xmlns:svg="http://www.w3.org/2000/svg" id="svg8" width="2114.346" height="762.897" enable-background="new" version="1.1" viewBox="0 0 559.421 201.85"><defs id="defs2"><linearGradient id="linearGradient4671"><stop style="stop-color:#ffd43b;stop-opacity:1" id="stop4673" offset="0"/><stop style="stop-color:#ffe873;stop-opacity:1" id="stop4675" offset="1"/></linearGradient><linearGradient id="linearGradient4689"><stop style="stop-color:#5a9fd4;stop-opacity:1" id="stop4691" offset="0"/><stop style="stop-color:#306998;stop-opacity:1" id="stop4693" offset="1"/></linearGradient><clipPath id="clipPath4793" clipPathUnits="userSpaceOnUse"><g style="fill:#7289da;fill-opacity:1" id="use4795"><path id="path5572" d="M 6.6811787,0.72787837 H 4.7015954 c -0.166935,0 -0.3028467,0.13591169 -0.3028467,0.30432403 v 1.9973109 c 0,0.1684122 0.1359117,0.304324 0.3028467,0.304324 h 1.675259 L 6.2985576,3.0605366 6.4876523,3.2363353 6.6664058,3.4017931 6.9840255,3.6824802 V 1.0322024 c 0,-0.16841234 -0.1359121,-0.30432403 -0.3028468,-0.30432403 z M 6.1109404,2.6572335 c 0,0 -0.053183,-0.063524 -0.097502,-0.1196614 C 6.2069649,2.4829127 6.28083,2.3617734 6.28083,2.3617734 6.2202604,2.4016599 6.1626461,2.4297294 6.1109404,2.448934 6.0370753,2.4799569 5.9661649,2.5006389 5.8967321,2.5124582 5.7549109,2.5390503 5.6249085,2.5316628 5.514111,2.5109831 5.4299049,2.494733 5.357517,2.4710954 5.2969477,2.4474589 5.2629692,2.4341634 5.2260371,2.4179133 5.1891051,2.3972303 c -0.00443,-0.00296 -0.00886,-0.00443 -0.013295,-0.00739 -0.00296,-0.00148 -0.00443,-0.00296 -0.00591,-0.00443 -0.026592,-0.014773 -0.041365,-0.025114 -0.041365,-0.025114 0,0 0.070911,0.118184 0.2585277,0.1743217 -0.044318,0.05614 -0.098979,0.122618 -0.098979,0.122618 C 4.9615985,2.646908 4.8375053,2.432695 4.8375053,2.432695 c 0,-0.475691 0.2127313,-0.8612666 0.2127313,-0.8612666 C 5.262968,1.4118799 5.4653582,1.4163117 5.4653582,1.4163117 l 0.014773,0.017728 c -0.2659142,0.07682 -0.3885301,0.1935264 -0.3885301,0.1935264 0,0 0.0325,-0.017727 0.087161,-0.042842 0.1580713,-0.069433 0.2836418,-0.088638 0.3353474,-0.09307 0.00886,-0.00148 0.01625,-0.00296 0.025114,-0.00296 0.090115,-0.011818 0.1920491,-0.014773 0.2984149,-0.00296 0.1403432,0.01625 0.2910281,0.057615 0.4446674,0.141821 0,0 -0.1167069,-0.1107975 -0.3678481,-0.1876173 l 0.02068,-0.023636 c 0,0 0.2023902,-0.00443 0.4151216,0.1551167 0,0 0.2127315,0.3855754 0.2127315,0.8612664 0,0 -0.1255704,0.2142086 -0.452054,0.2245497 z" class="st0" style="fill:#7289da;fill-opacity:1;stroke-width:.01477302"/><path style="fill:#7289da;fill-opacity:1;stroke-width:.03156727" id="path5574" d="m 25.763828,13.337981 c -0.329878,-0.292039 -0.903193,-0.813039 -1.274033,-1.157777 -0.370841,-0.344739 -0.67962,-0.621433 -0.686177,-0.614877 -0.0066,0.0066 0.05182,0.23397 0.12972,0.505362 0.0779,0.271393 0.141642,0.50123 0.141642,0.510749 0,0.03331 -6.25855,0.01806 -6.466931,-0.01576 -0.110455,-0.01792 -0.266742,-0.06599 -0.347304,-0.106812 -0.208575,-0.105693 -0.452683,-0.37621 -0.543908,-0.602752 l -0.07595,-0.188606 V 7.6742526 3.6809933 l 0.07616,-0.1894036 C 16.822036,3.2304683 17.109916,2.9431184 17.360228,2.84959 l 0.182696,-0.068264 h 3.954778 c 3.405833,0 3.976387,0.0065 4.110452,0.046856 0.201799,0.060739 0.444602,0.2465305 0.574216,0.4393868 0.210179,0.3127318 0.198035,-0.042792 0.189225,5.5394942 l -0.008,5.061897 z M 20.197624,9.8114052 20.376662,9.5840722 20.244975,9.5269332 C 19.978037,9.4111082 19.845365,9.33514 19.670936,9.1982359 19.572716,9.1211439 19.498443,9.0519734 19.505892,9.0445242 c 0.0074,-0.00745 0.14716,0.049651 0.31047,0.126889 1.130592,0.5347214 2.466111,0.5236751 3.564536,-0.029483 0.124874,-0.062885 0.233335,-0.1080449 0.241025,-0.1003545 0.05185,0.051852 -0.732075,0.5267131 -0.869528,0.5267131 -0.05692,0 -0.0431,0.024678 0.142368,0.2542222 0.173434,0.214656 0.180267,0.219275 0.323564,0.218739 0.518304,-0.0019 1.242726,-0.3483437 1.515258,-0.7245634 0.08377,-0.1156476 0.08811,-0.1375894 0.07619,-0.3853476 C 24.766155,8.0246999 24.523543,7.0285358 24.150705,6.225247 23.997071,5.894237 23.942851,5.8422298 23.538332,5.6378628 23.139264,5.4362497 22.489425,5.2841125 22.387751,5.3684944 c -0.02694,0.022355 -0.04897,0.049687 -0.04897,0.060738 0,0.011051 0.09588,0.053528 0.213079,0.094394 0.248839,0.086771 0.853217,0.3775763 0.88221,0.4244884 0.01275,0.020632 -0.0018,0.023257 -0.0405,0.00729 -0.231235,-0.095447 -0.700913,-0.2427657 -0.912737,-0.286289 -0.804272,-0.1652527 -1.891768,-0.086994 -2.603493,0.1873525 -0.430076,0.1657802 -0.406106,0.1585989 -0.334493,0.1002121 0.115771,-0.094389 0.603068,-0.3287344 0.894456,-0.4301514 0.238269,-0.082929 0.2858,-0.1097957 0.256564,-0.1450222 -0.11049,-0.133133 -0.898649,0.089192 -1.38203,0.3898453 -0.22446,0.1396098 -0.237859,0.1549284 -0.355967,0.4069646 -0.371779,0.7933546 -0.618479,1.7780854 -0.677009,2.7023601 l -0.02143,0.3383288 0.233446,0.2326464 c 0.167978,0.1674034 0.299841,0.2650981 0.4702,0.3483628 0.287371,0.140455 0.649707,0.2382292 0.883884,0.2385112 l 0.17362,2.21e-4 0.179038,-0.2273336 z" transform="scale(0.26458333)"/><rect style="fill:#7289da;fill-opacity:1;stroke-width:.26458332" id="rect5576" width="1.938" height="1.67" x="4.736" y="1.166"/></g></clipPath><clipPath id="clipPath4823" clipPathUnits="userSpaceOnUse"><g id="use4825" style="stroke:none;stroke-width:1.0000031;stroke-miterlimit:4;stroke-dasharray:none;stroke-opacity:1"><path id="path6198" d="m 5.9189238,1.0414555 c -0.07816,3.609e-4 -0.1528021,0.00702 -0.218479,0.018651 C 5.506969,1.0942875 5.4718413,1.1658308 5.4718413,1.2977692 v 0.1742499 h 0.457207 v 0.058083 H 5.4718413 5.3002554 c -0.1328772,0 -0.2492281,0.079867 -0.2856214,0.2318007 -0.041979,0.1741517 -0.04384,0.2828252 0,0.4646675 0.032499,0.1353564 0.1101144,0.2318008 0.2429913,0.2318008 H 5.4148235 V 2.2494844 c 0,-0.1509086 0.1305698,-0.2840226 0.2856213,-0.2840226 h 0.4566743 c 0.1271218,0 0.2286036,-0.1046677 0.2286036,-0.2323337 V 1.2977688 c 0,-0.1239053 -0.1045281,-0.2169831 -0.2286036,-0.2376626 -0.078542,-0.013075 -0.160035,-0.019014 -0.2381953,-0.018651 z M 5.6716696,1.1816022 c 0.047227,0 0.085792,0.039196 0.085792,0.087391 -1e-7,0.048024 -0.038567,0.086859 -0.085792,0.086859 -0.047397,0 -0.085793,-0.038834 -0.085793,-0.086859 0,-0.048195 0.038397,-0.087391 0.085793,-0.087391 z" style="fill:#cad6ff;fill-opacity:1;stroke:none;stroke-width:1.0000031;stroke-miterlimit:4;stroke-dasharray:none;stroke-opacity:1"/><path id="path6200" d="m 6.4427404,1.5301027 v 0.2030256 c 0,0.157403 -0.1334473,0.2898841 -0.2856213,0.2898841 H 5.7004448 c -0.1250908,0 -0.2286035,0.1070611 -0.2286035,0.2323338 v 0.4353592 c 0,0.1239059 0.1077446,0.1967857 0.2286035,0.2323338 0.1447262,0.042555 0.2835109,0.050245 0.4566743,0 C 6.2722229,2.8897135 6.3857227,2.8226433 6.3857227,2.6907054 V 2.5164553 H 5.9290483 v -0.058083 h 0.4566744 0.2286036 c 0.1328772,0 0.1823927,-0.092685 0.2286035,-0.2318007 0.047734,-0.1432179 0.045703,-0.2809453 0,-0.4646674 C 6.810091,1.6296236 6.7473721,1.5301027 6.6143263,1.5301027 Z M 6.1858943,2.632622 c 0.047396,10e-8 0.085793,0.038834 0.085793,0.086858 -1e-7,0.048195 -0.038398,0.087391 -0.085793,0.087391 -0.047226,0 -0.085792,-0.039197 -0.085792,-0.087391 1e-7,-0.048024 0.038567,-0.086858 0.085792,-0.086858 z" style="fill:#fff;fill-opacity:1;stroke:none;stroke-width:1.0000031;stroke-miterlimit:4;stroke-dasharray:none;stroke-opacity:1"/></g></clipPath><clipPath id="clipPath4837" clipPathUnits="userSpaceOnUse"><g id="use4839"><path style="fill:#5b6dae;fill-opacity:1;stroke-width:.01705202" id="path6192" d="M 8.8587208,1.3687791 C 8.7805608,1.36914 8.7059187,1.3757991 8.6402418,1.3874301 8.446766,1.4216111 8.4116383,1.4931544 8.4116383,1.6250928 v 0.1742499 h 0.457207 v 0.058083 H 8.4116383 8.2400524 c -0.1328772,0 -0.2492281,0.079867 -0.2856214,0.2318007 -0.041979,0.1741517 -0.04384,0.2828252 0,0.4646675 0.032499,0.1353564 0.1101144,0.2318008 0.2429913,0.2318008 H 8.3546205 V 2.576808 c 0,-0.1509086 0.1305698,-0.2840226 0.2856213,-0.2840226 h 0.4566743 c 0.1271218,0 0.2286036,-0.1046677 0.2286036,-0.2323337 V 1.6250924 c 0,-0.1239053 -0.1045281,-0.2169831 -0.2286036,-0.2376626 -0.078542,-0.013075 -0.160035,-0.019014 -0.2381953,-0.018651 z M 8.6114666,1.5089258 c 0.047227,0 0.085792,0.039196 0.085792,0.087391 -10e-8,0.048024 -0.038567,0.086859 -0.085792,0.086859 -0.047397,0 -0.085793,-0.038834 -0.085793,-0.086859 0,-0.048195 0.038397,-0.087391 0.085793,-0.087391 z"/><path style="fill:#5b6dae;fill-opacity:1;stroke-width:.01705202" id="path6194" d="m 9.3825374,1.8574263 v 0.2030256 c 0,0.157403 -0.1334473,0.2898841 -0.2856213,0.2898841 H 8.6402418 c -0.1250908,0 -0.2286035,0.1070611 -0.2286035,0.2323338 V 3.018029 c 0,0.1239059 0.1077446,0.1967857 0.2286035,0.2323338 0.1447262,0.042555 0.2835109,0.050245 0.4566743,0 C 9.2120199,3.2170371 9.3255197,3.1499669 9.3255197,3.018029 V 2.8437789 H 8.8688453 v -0.058083 h 0.4566744 0.2286036 c 0.1328771,0 0.1823931,-0.092685 0.2286031,-0.2318007 0.04773,-0.1432179 0.0457,-0.2809453 0,-0.4646674 C 9.7498884,1.9569472 9.6871694,1.8574263 9.5541233,1.8574263 Z M 9.1256913,2.9599456 c 0.047396,10e-8 0.085793,0.038834 0.085793,0.086858 -1e-7,0.048195 -0.038398,0.087391 -0.085793,0.087391 -0.047226,0 -0.085792,-0.039197 -0.085792,-0.087391 10e-8,-0.048024 0.038567,-0.086858 0.085792,-0.086858 z"/></g></clipPath><clipPath id="clipPath4855" clipPathUnits="userSpaceOnUse"><g id="use4857"><g id="g6184" clip-path="url(#clipPath4837)"><g id="g6182"><path style="fill:#5b6dae;fill-opacity:1;stroke-width:.01705202" id="path6178" d="M 8.8587208,1.3687791 C 8.7805608,1.36914 8.7059187,1.3757991 8.6402418,1.3874301 8.446766,1.4216111 8.4116383,1.4931544 8.4116383,1.6250928 v 0.1742499 h 0.457207 v 0.058083 H 8.4116383 8.2400524 c -0.1328772,0 -0.2492281,0.079867 -0.2856214,0.2318007 -0.041979,0.1741517 -0.04384,0.2828252 0,0.4646675 0.032499,0.1353564 0.1101144,0.2318008 0.2429913,0.2318008 H 8.3546205 V 2.576808 c 0,-0.1509086 0.1305698,-0.2840226 0.2856213,-0.2840226 h 0.4566743 c 0.1271218,0 0.2286036,-0.1046677 0.2286036,-0.2323337 V 1.6250924 c 0,-0.1239053 -0.1045281,-0.2169831 -0.2286036,-0.2376626 -0.078542,-0.013075 -0.160035,-0.019014 -0.2381953,-0.018651 z M 8.6114666,1.5089258 c 0.047227,0 0.085792,0.039196 0.085792,0.087391 -10e-8,0.048024 -0.038567,0.086859 -0.085792,0.086859 -0.047397,0 -0.085793,-0.038834 -0.085793,-0.086859 0,-0.048195 0.038397,-0.087391 0.085793,-0.087391 z"/><path style="fill:#5b6dae;fill-opacity:1;stroke-width:.01705202" id="path6180" d="m 9.3825374,1.8574263 v 0.2030256 c 0,0.157403 -0.1334473,0.2898841 -0.2856213,0.2898841 H 8.6402418 c -0.1250908,0 -0.2286035,0.1070611 -0.2286035,0.2323338 V 3.018029 c 0,0.1239059 0.1077446,0.1967857 0.2286035,0.2323338 0.1447262,0.042555 0.2835109,0.050245 0.4566743,0 C 9.2120199,3.2170371 9.3255197,3.1499669 9.3255197,3.018029 V 2.8437789 H 8.8688453 v -0.058083 h 0.4566744 0.2286036 c 0.1328771,0 0.1823931,-0.092685 0.2286031,-0.2318007 0.04773,-0.1432179 0.0457,-0.2809453 0,-0.4646674 C 9.7498884,1.9569472 9.6871694,1.8574263 9.5541233,1.8574263 Z M 9.1256913,2.9599456 c 0.047396,10e-8 0.085793,0.038834 0.085793,0.086858 -1e-7,0.048195 -0.038398,0.087391 -0.085793,0.087391 -0.047226,0 -0.085792,-0.039197 -0.085792,-0.087391 10e-8,-0.048024 0.038567,-0.086858 0.085792,-0.086858 z"/></g></g><rect id="rect6186" width=".263" height=".238" x="8.486" y="1.496" style="fill:#5b6dae;fill-opacity:1;stroke-width:.26458332"/><rect id="rect6188" width=".23" height=".221" x="9.012" y="2.937" style="fill:#5b6dae;fill-opacity:1;stroke-width:.26458332"/></g></clipPath><clipPath id="clipPath4901" clipPathUnits="userSpaceOnUse"><g id="use4903"><g id="g6172" clip-path="url(#clipPath4855)" transform="translate(-2.8377931,-0.23976758)"><g id="g6170"><g id="g6164" clip-path="url(#clipPath4837)"><g id="g6162"><path style="fill:#5b6dae;fill-opacity:1;stroke-width:.01705202" id="path6158" d="M 8.8587208,1.3687791 C 8.7805608,1.36914 8.7059187,1.3757991 8.6402418,1.3874301 8.446766,1.4216111 8.4116383,1.4931544 8.4116383,1.6250928 v 0.1742499 h 0.457207 v 0.058083 H 8.4116383 8.2400524 c -0.1328772,0 -0.2492281,0.079867 -0.2856214,0.2318007 -0.041979,0.1741517 -0.04384,0.2828252 0,0.4646675 0.032499,0.1353564 0.1101144,0.2318008 0.2429913,0.2318008 H 8.3546205 V 2.576808 c 0,-0.1509086 0.1305698,-0.2840226 0.2856213,-0.2840226 h 0.4566743 c 0.1271218,0 0.2286036,-0.1046677 0.2286036,-0.2323337 V 1.6250924 c 0,-0.1239053 -0.1045281,-0.2169831 -0.2286036,-0.2376626 -0.078542,-0.013075 -0.160035,-0.019014 -0.2381953,-0.018651 z M 8.6114666,1.5089258 c 0.047227,0 0.085792,0.039196 0.085792,0.087391 -10e-8,0.048024 -0.038567,0.086859 -0.085792,0.086859 -0.047397,0 -0.085793,-0.038834 -0.085793,-0.086859 0,-0.048195 0.038397,-0.087391 0.085793,-0.087391 z"/><path style="fill:#5b6dae;fill-opacity:1;stroke-width:.01705202" id="path6160" d="m 9.3825374,1.8574263 v 0.2030256 c 0,0.157403 -0.1334473,0.2898841 -0.2856213,0.2898841 H 8.6402418 c -0.1250908,0 -0.2286035,0.1070611 -0.2286035,0.2323338 V 3.018029 c 0,0.1239059 0.1077446,0.1967857 0.2286035,0.2323338 0.1447262,0.042555 0.2835109,0.050245 0.4566743,0 C 9.2120199,3.2170371 9.3255197,3.1499669 9.3255197,3.018029 V 2.8437789 H 8.8688453 v -0.058083 h 0.4566744 0.2286036 c 0.1328771,0 0.1823931,-0.092685 0.2286031,-0.2318007 0.04773,-0.1432179 0.0457,-0.2809453 0,-0.4646674 C 9.7498884,1.9569472 9.6871694,1.8574263 9.5541233,1.8574263 Z M 9.1256913,2.9599456 c 0.047396,10e-8 0.085793,0.038834 0.085793,0.086858 -1e-7,0.048195 -0.038398,0.087391 -0.085793,0.087391 -0.047226,0 -0.085792,-0.039197 -0.085792,-0.087391 10e-8,-0.048024 0.038567,-0.086858 0.085792,-0.086858 z"/></g></g><rect id="rect6166" width=".263" height=".238" x="8.486" y="1.496" style="fill:#5b6dae;fill-opacity:1;stroke-width:.26458332"/><rect id="rect6168" width=".23" height=".221" x="9.012" y="2.937" style="fill:#5b6dae;fill-opacity:1;stroke-width:.26458332"/></g></g><rect style="fill:#5b6dae;fill-opacity:1;stroke-width:.26458332" id="rect6174" width=".237" height=".109" x="5.537" y="1.16"/></g></clipPath><clipPath id="clipPath4957" clipPathUnits="userSpaceOnUse"><g id="use4959"><g id="g6152" clip-path="url(#clipPath4901)" transform="matrix(63.8638,0,0,63.8638,-273.24001,-38.357102)"><g id="g6150"><g id="g6146" clip-path="url(#clipPath4855)" transform="translate(-2.8377931,-0.23976758)"><g id="g6144"><g id="g6138" clip-path="url(#clipPath4837)"><g id="g6136"><path style="fill:#5b6dae;fill-opacity:1;stroke-width:.01705202" id="path6132" d="M 8.8587208,1.3687791 C 8.7805608,1.36914 8.7059187,1.3757991 8.6402418,1.3874301 8.446766,1.4216111 8.4116383,1.4931544 8.4116383,1.6250928 v 0.1742499 h 0.457207 v 0.058083 H 8.4116383 8.2400524 c -0.1328772,0 -0.2492281,0.079867 -0.2856214,0.2318007 -0.041979,0.1741517 -0.04384,0.2828252 0,0.4646675 0.032499,0.1353564 0.1101144,0.2318008 0.2429913,0.2318008 H 8.3546205 V 2.576808 c 0,-0.1509086 0.1305698,-0.2840226 0.2856213,-0.2840226 h 0.4566743 c 0.1271218,0 0.2286036,-0.1046677 0.2286036,-0.2323337 V 1.6250924 c 0,-0.1239053 -0.1045281,-0.2169831 -0.2286036,-0.2376626 -0.078542,-0.013075 -0.160035,-0.019014 -0.2381953,-0.018651 z M 8.6114666,1.5089258 c 0.047227,0 0.085792,0.039196 0.085792,0.087391 -10e-8,0.048024 -0.038567,0.086859 -0.085792,0.086859 -0.047397,0 -0.085793,-0.038834 -0.085793,-0.086859 0,-0.048195 0.038397,-0.087391 0.085793,-0.087391 z"/><path style="fill:#5b6dae;fill-opacity:1;stroke-width:.01705202" id="path6134" d="m 9.3825374,1.8574263 v 0.2030256 c 0,0.157403 -0.1334473,0.2898841 -0.2856213,0.2898841 H 8.6402418 c -0.1250908,0 -0.2286035,0.1070611 -0.2286035,0.2323338 V 3.018029 c 0,0.1239059 0.1077446,0.1967857 0.2286035,0.2323338 0.1447262,0.042555 0.2835109,0.050245 0.4566743,0 C 9.2120199,3.2170371 9.3255197,3.1499669 9.3255197,3.018029 V 2.8437789 H 8.8688453 v -0.058083 h 0.4566744 0.2286036 c 0.1328771,0 0.1823931,-0.092685 0.2286031,-0.2318007 0.04773,-0.1432179 0.0457,-0.2809453 0,-0.4646674 C 9.7498884,1.9569472 9.6871694,1.8574263 9.5541233,1.8574263 Z M 9.1256913,2.9599456 c 0.047396,10e-8 0.085793,0.038834 0.085793,0.086858 -1e-7,0.048195 -0.038398,0.087391 -0.085793,0.087391 -0.047226,0 -0.085792,-0.039197 -0.085792,-0.087391 10e-8,-0.048024 0.038567,-0.086858 0.085792,-0.086858 z"/></g></g><rect id="rect6140" width=".263" height=".238" x="8.486" y="1.496" style="fill:#5b6dae;fill-opacity:1;stroke-width:.26458332"/><rect id="rect6142" width=".23" height=".221" x="9.012" y="2.937" style="fill:#5b6dae;fill-opacity:1;stroke-width:.26458332"/></g></g><rect style="fill:#5b6dae;fill-opacity:1;stroke-width:.26458332" id="rect6148" width=".237" height=".109" x="5.537" y="1.16"/></g></g><path id="path6154" d="m 134.57651,122.35329 6.51435,5.59167 v 0.78632 h -7.97237 v -6.08623 z" style="fill:#5b6dae;fill-opacity:1;stroke:none;stroke-width:.26458332px;stroke-linecap:butt;stroke-linejoin:miter;stroke-opacity:1"/></g></clipPath><clipPath id="clipPath4986" clipPathUnits="userSpaceOnUse"><g id="use4988"><g id="g6126" clip-path="url(#clipPath4957)"><g id="g6124"><g id="g6120" clip-path="url(#clipPath4901)" transform="matrix(63.8638,0,0,63.8638,-273.24001,-38.357102)"><g id="g6118"><g id="g6114" clip-path="url(#clipPath4855)" transform="translate(-2.8377931,-0.23976758)"><g id="g6112"><g id="g6106" clip-path="url(#clipPath4837)"><g id="g6104"><path style="fill:#5b6dae;fill-opacity:1;stroke-width:.01705202" id="path6100" d="M 8.8587208,1.3687791 C 8.7805608,1.36914 8.7059187,1.3757991 8.6402418,1.3874301 8.446766,1.4216111 8.4116383,1.4931544 8.4116383,1.6250928 v 0.1742499 h 0.457207 v 0.058083 H 8.4116383 8.2400524 c -0.1328772,0 -0.2492281,0.079867 -0.2856214,0.2318007 -0.041979,0.1741517 -0.04384,0.2828252 0,0.4646675 0.032499,0.1353564 0.1101144,0.2318008 0.2429913,0.2318008 H 8.3546205 V 2.576808 c 0,-0.1509086 0.1305698,-0.2840226 0.2856213,-0.2840226 h 0.4566743 c 0.1271218,0 0.2286036,-0.1046677 0.2286036,-0.2323337 V 1.6250924 c 0,-0.1239053 -0.1045281,-0.2169831 -0.2286036,-0.2376626 -0.078542,-0.013075 -0.160035,-0.019014 -0.2381953,-0.018651 z M 8.6114666,1.5089258 c 0.047227,0 0.085792,0.039196 0.085792,0.087391 -10e-8,0.048024 -0.038567,0.086859 -0.085792,0.086859 -0.047397,0 -0.085793,-0.038834 -0.085793,-0.086859 0,-0.048195 0.038397,-0.087391 0.085793,-0.087391 z"/><path style="fill:#5b6dae;fill-opacity:1;stroke-width:.01705202" id="path6102" d="m 9.3825374,1.8574263 v 0.2030256 c 0,0.157403 -0.1334473,0.2898841 -0.2856213,0.2898841 H 8.6402418 c -0.1250908,0 -0.2286035,0.1070611 -0.2286035,0.2323338 V 3.018029 c 0,0.1239059 0.1077446,0.1967857 0.2286035,0.2323338 0.1447262,0.042555 0.2835109,0.050245 0.4566743,0 C 9.2120199,3.2170371 9.3255197,3.1499669 9.3255197,3.018029 V 2.8437789 H 8.8688453 v -0.058083 h 0.4566744 0.2286036 c 0.1328771,0 0.1823931,-0.092685 0.2286031,-0.2318007 0.04773,-0.1432179 0.0457,-0.2809453 0,-0.4646674 C 9.7498884,1.9569472 9.6871694,1.8574263 9.5541233,1.8574263 Z M 9.1256913,2.9599456 c 0.047396,10e-8 0.085793,0.038834 0.085793,0.086858 -1e-7,0.048195 -0.038398,0.087391 -0.085793,0.087391 -0.047226,0 -0.085792,-0.039197 -0.085792,-0.087391 10e-8,-0.048024 0.038567,-0.086858 0.085792,-0.086858 z"/></g></g><rect id="rect6108" width=".263" height=".238" x="8.486" y="1.496" style="fill:#5b6dae;fill-opacity:1;stroke-width:.26458332"/><rect id="rect6110" width=".23" height=".221" x="9.012" y="2.937" style="fill:#5b6dae;fill-opacity:1;stroke-width:.26458332"/></g></g><rect style="fill:#5b6dae;fill-opacity:1;stroke-width:.26458332" id="rect6116" width=".237" height=".109" x="5.537" y="1.16"/></g></g><path id="path6122" d="m 134.57651,122.35329 6.51435,5.59167 v 0.78632 h -7.97237 v -6.08623 z" style="fill:#5b6dae;fill-opacity:1;stroke:none;stroke-width:.26458332px;stroke-linecap:butt;stroke-linejoin:miter;stroke-opacity:1"/></g></g><rect style="opacity:1;fill:#5b6dae;fill-opacity:1;stroke:none;stroke-width:.26458332" id="rect6128" width="2.844" height="4.299" x="82.021" y="41.28"/></g></clipPath><clipPath id="clipPath5033" clipPathUnits="userSpaceOnUse"><g id="use5035"><g id="g6094" clip-path="url(#clipPath4986)"><g id="g6092"><g id="g6088" clip-path="url(#clipPath4957)"><g id="g6086"><g id="g6082" clip-path="url(#clipPath4901)" transform="matrix(63.8638,0,0,63.8638,-273.24001,-38.357102)"><g id="g6080"><g id="g6076" clip-path="url(#clipPath4855)" transform="translate(-2.8377931,-0.23976758)"><g id="g6074"><g id="g6068" clip-path="url(#clipPath4837)"><g id="g6066"><path style="fill:#5b6dae;fill-opacity:1;stroke-width:.01705202" id="path6062" d="M 8.8587208,1.3687791 C 8.7805608,1.36914 8.7059187,1.3757991 8.6402418,1.3874301 8.446766,1.4216111 8.4116383,1.4931544 8.4116383,1.6250928 v 0.1742499 h 0.457207 v 0.058083 H 8.4116383 8.2400524 c -0.1328772,0 -0.2492281,0.079867 -0.2856214,0.2318007 -0.041979,0.1741517 -0.04384,0.2828252 0,0.4646675 0.032499,0.1353564 0.1101144,0.2318008 0.2429913,0.2318008 H 8.3546205 V 2.576808 c 0,-0.1509086 0.1305698,-0.2840226 0.2856213,-0.2840226 h 0.4566743 c 0.1271218,0 0.2286036,-0.1046677 0.2286036,-0.2323337 V 1.6250924 c 0,-0.1239053 -0.1045281,-0.2169831 -0.2286036,-0.2376626 -0.078542,-0.013075 -0.160035,-0.019014 -0.2381953,-0.018651 z M 8.6114666,1.5089258 c 0.047227,0 0.085792,0.039196 0.085792,0.087391 -10e-8,0.048024 -0.038567,0.086859 -0.085792,0.086859 -0.047397,0 -0.085793,-0.038834 -0.085793,-0.086859 0,-0.048195 0.038397,-0.087391 0.085793,-0.087391 z"/><path style="fill:#5b6dae;fill-opacity:1;stroke-width:.01705202" id="path6064" d="m 9.3825374,1.8574263 v 0.2030256 c 0,0.157403 -0.1334473,0.2898841 -0.2856213,0.2898841 H 8.6402418 c -0.1250908,0 -0.2286035,0.1070611 -0.2286035,0.2323338 V 3.018029 c 0,0.1239059 0.1077446,0.1967857 0.2286035,0.2323338 0.1447262,0.042555 0.2835109,0.050245 0.4566743,0 C 9.2120199,3.2170371 9.3255197,3.1499669 9.3255197,3.018029 V 2.8437789 H 8.8688453 v -0.058083 h 0.4566744 0.2286036 c 0.1328771,0 0.1823931,-0.092685 0.2286031,-0.2318007 0.04773,-0.1432179 0.0457,-0.2809453 0,-0.4646674 C 9.7498884,1.9569472 9.6871694,1.8574263 9.5541233,1.8574263 Z M 9.1256913,2.9599456 c 0.047396,10e-8 0.085793,0.038834 0.085793,0.086858 -1e-7,0.048195 -0.038398,0.087391 -0.085793,0.087391 -0.047226,0 -0.085792,-0.039197 -0.085792,-0.087391 10e-8,-0.048024 0.038567,-0.086858 0.085792,-0.086858 z"/></g></g><rect id="rect6070" width=".263" height=".238" x="8.486" y="1.496" style="fill:#5b6dae;fill-opacity:1;stroke-width:.26458332"/><rect id="rect6072" width=".23" height=".221" x="9.012" y="2.937" style="fill:#5b6dae;fill-opacity:1;stroke-width:.26458332"/></g></g><rect style="fill:#5b6dae;fill-opacity:1;stroke-width:.26458332" id="rect6078" width=".237" height=".109" x="5.537" y="1.16"/></g></g><path id="path6084" d="m 134.57651,122.35329 6.51435,5.59167 v 0.78632 h -7.97237 v -6.08623 z" style="fill:#5b6dae;fill-opacity:1;stroke:none;stroke-width:.26458332px;stroke-linecap:butt;stroke-linejoin:miter;stroke-opacity:1"/></g></g><rect style="opacity:1;fill:#5b6dae;fill-opacity:1;stroke:none;stroke-width:.26458332" id="rect6090" width="2.844" height="4.299" x="82.021" y="41.28"/></g></g><path id="path6096" d="m 76.212572,55.651629 6.514351,5.591662 h 6.935319 V 51.586439 H 77.033759 Z" style="fill:#5b6dae;fill-opacity:1;stroke:none;stroke-width:.26458332px;stroke-linecap:butt;stroke-linejoin:miter;stroke-opacity:1"/></g></clipPath><clipPath id="clipPath5074" clipPathUnits="userSpaceOnUse"><g id="use5076"><g id="g6056" clip-path="url(#clipPath5033)"><g id="g6054"><g id="g6050" clip-path="url(#clipPath4986)"><g id="g6048"><g id="g6044" clip-path="url(#clipPath4957)"><g id="g6042"><g id="g6038" clip-path="url(#clipPath4901)" transform="matrix(63.8638,0,0,63.8638,-273.24001,-38.357102)"><g id="g6036"><g id="g6032" clip-path="url(#clipPath4855)" transform="translate(-2.8377931,-0.23976758)"><g id="g6030"><g id="g6024" clip-path="url(#clipPath4837)"><g id="g6022"><path style="fill:#5b6dae;fill-opacity:1;stroke-width:.01705202" id="path6018" d="M 8.8587208,1.3687791 C 8.7805608,1.36914 8.7059187,1.3757991 8.6402418,1.3874301 8.446766,1.4216111 8.4116383,1.4931544 8.4116383,1.6250928 v 0.1742499 h 0.457207 v 0.058083 H 8.4116383 8.2400524 c -0.1328772,0 -0.2492281,0.079867 -0.2856214,0.2318007 -0.041979,0.1741517 -0.04384,0.2828252 0,0.4646675 0.032499,0.1353564 0.1101144,0.2318008 0.2429913,0.2318008 H 8.3546205 V 2.576808 c 0,-0.1509086 0.1305698,-0.2840226 0.2856213,-0.2840226 h 0.4566743 c 0.1271218,0 0.2286036,-0.1046677 0.2286036,-0.2323337 V 1.6250924 c 0,-0.1239053 -0.1045281,-0.2169831 -0.2286036,-0.2376626 -0.078542,-0.013075 -0.160035,-0.019014 -0.2381953,-0.018651 z M 8.6114666,1.5089258 c 0.047227,0 0.085792,0.039196 0.085792,0.087391 -10e-8,0.048024 -0.038567,0.086859 -0.085792,0.086859 -0.047397,0 -0.085793,-0.038834 -0.085793,-0.086859 0,-0.048195 0.038397,-0.087391 0.085793,-0.087391 z"/><path style="fill:#5b6dae;fill-opacity:1;stroke-width:.01705202" id="path6020" d="m 9.3825374,1.8574263 v 0.2030256 c 0,0.157403 -0.1334473,0.2898841 -0.2856213,0.2898841 H 8.6402418 c -0.1250908,0 -0.2286035,0.1070611 -0.2286035,0.2323338 V 3.018029 c 0,0.1239059 0.1077446,0.1967857 0.2286035,0.2323338 0.1447262,0.042555 0.2835109,0.050245 0.4566743,0 C 9.2120199,3.2170371 9.3255197,3.1499669 9.3255197,3.018029 V 2.8437789 H 8.8688453 v -0.058083 h 0.4566744 0.2286036 c 0.1328771,0 0.1823931,-0.092685 0.2286031,-0.2318007 0.04773,-0.1432179 0.0457,-0.2809453 0,-0.4646674 C 9.7498884,1.9569472 9.6871694,1.8574263 9.5541233,1.8574263 Z M 9.1256913,2.9599456 c 0.047396,10e-8 0.085793,0.038834 0.085793,0.086858 -1e-7,0.048195 -0.038398,0.087391 -0.085793,0.087391 -0.047226,0 -0.085792,-0.039197 -0.085792,-0.087391 10e-8,-0.048024 0.038567,-0.086858 0.085792,-0.086858 z"/></g></g><rect id="rect6026" width=".263" height=".238" x="8.486" y="1.496" style="fill:#5b6dae;fill-opacity:1;stroke-width:.26458332"/><rect id="rect6028" width=".23" height=".221" x="9.012" y="2.937" style="fill:#5b6dae;fill-opacity:1;stroke-width:.26458332"/></g></g><rect style="fill:#5b6dae;fill-opacity:1;stroke-width:.26458332" id="rect6034" width=".237" height=".109" x="5.537" y="1.16"/></g></g><path id="path6040" d="m 134.57651,122.35329 6.51435,5.59167 v 0.78632 h -7.97237 v -6.08623 z" style="fill:#5b6dae;fill-opacity:1;stroke:none;stroke-width:.26458332px;stroke-linecap:butt;stroke-linejoin:miter;stroke-opacity:1"/></g></g><rect style="opacity:1;fill:#5b6dae;fill-opacity:1;stroke:none;stroke-width:.26458332" id="rect6046" width="2.844" height="4.299" x="82.021" y="41.28"/></g></g><path id="path6052" d="m 76.212572,55.651629 6.514351,5.591662 h 6.935319 V 51.586439 H 77.033759 Z" style="fill:#5b6dae;fill-opacity:1;stroke:none;stroke-width:.26458332px;stroke-linecap:butt;stroke-linejoin:miter;stroke-opacity:1"/></g></g><path style="fill:#5b6dae;fill-opacity:1;stroke:none;stroke-width:.26458332px;stroke-linecap:butt;stroke-linejoin:miter;stroke-opacity:1" id="path6058" d="m 129.12239,33.45736 6.26748,5.402184 -2.4712,5.35988 -12.14028,-8.37878 z"/></g></clipPath><clipPath id="clipPath5112" clipPathUnits="userSpaceOnUse"><g id="use5114"><g id="g6012" clip-path="url(#clipPath5074)"><g id="g6010"><g id="g6006" clip-path="url(#clipPath5033)"><g id="g6004"><g id="g6000" clip-path="url(#clipPath4986)"><g id="g5998"><g id="g5994" clip-path="url(#clipPath4957)"><g id="g5992"><g id="g5988" clip-path="url(#clipPath4901)" transform="matrix(63.8638,0,0,63.8638,-273.24001,-38.357102)"><g id="g5986"><g id="g5982" clip-path="url(#clipPath4855)" transform="translate(-2.8377931,-0.23976758)"><g id="g5980"><g id="g5974" clip-path="url(#clipPath4837)"><g id="g5972"><path style="fill:#5b6dae;fill-opacity:1;stroke-width:.01705202" id="path5968" d="M 8.8587208,1.3687791 C 8.7805608,1.36914 8.7059187,1.3757991 8.6402418,1.3874301 8.446766,1.4216111 8.4116383,1.4931544 8.4116383,1.6250928 v 0.1742499 h 0.457207 v 0.058083 H 8.4116383 8.2400524 c -0.1328772,0 -0.2492281,0.079867 -0.2856214,0.2318007 -0.041979,0.1741517 -0.04384,0.2828252 0,0.4646675 0.032499,0.1353564 0.1101144,0.2318008 0.2429913,0.2318008 H 8.3546205 V 2.576808 c 0,-0.1509086 0.1305698,-0.2840226 0.2856213,-0.2840226 h 0.4566743 c 0.1271218,0 0.2286036,-0.1046677 0.2286036,-0.2323337 V 1.6250924 c 0,-0.1239053 -0.1045281,-0.2169831 -0.2286036,-0.2376626 -0.078542,-0.013075 -0.160035,-0.019014 -0.2381953,-0.018651 z M 8.6114666,1.5089258 c 0.047227,0 0.085792,0.039196 0.085792,0.087391 -10e-8,0.048024 -0.038567,0.086859 -0.085792,0.086859 -0.047397,0 -0.085793,-0.038834 -0.085793,-0.086859 0,-0.048195 0.038397,-0.087391 0.085793,-0.087391 z"/><path style="fill:#5b6dae;fill-opacity:1;stroke-width:.01705202" id="path5970" d="m 9.3825374,1.8574263 v 0.2030256 c 0,0.157403 -0.1334473,0.2898841 -0.2856213,0.2898841 H 8.6402418 c -0.1250908,0 -0.2286035,0.1070611 -0.2286035,0.2323338 V 3.018029 c 0,0.1239059 0.1077446,0.1967857 0.2286035,0.2323338 0.1447262,0.042555 0.2835109,0.050245 0.4566743,0 C 9.2120199,3.2170371 9.3255197,3.1499669 9.3255197,3.018029 V 2.8437789 H 8.8688453 v -0.058083 h 0.4566744 0.2286036 c 0.1328771,0 0.1823931,-0.092685 0.2286031,-0.2318007 0.04773,-0.1432179 0.0457,-0.2809453 0,-0.4646674 C 9.7498884,1.9569472 9.6871694,1.8574263 9.5541233,1.8574263 Z M 9.1256913,2.9599456 c 0.047396,10e-8 0.085793,0.038834 0.085793,0.086858 -1e-7,0.048195 -0.038398,0.087391 -0.085793,0.087391 -0.047226,0 -0.085792,-0.039197 -0.085792,-0.087391 10e-8,-0.048024 0.038567,-0.086858 0.085792,-0.086858 z"/></g></g><rect id="rect5976" width=".263" height=".238" x="8.486" y="1.496" style="fill:#5b6dae;fill-opacity:1;stroke-width:.26458332"/><rect id="rect5978" width=".23" height=".221" x="9.012" y="2.937" style="fill:#5b6dae;fill-opacity:1;stroke-width:.26458332"/></g></g><rect style="fill:#5b6dae;fill-opacity:1;stroke-width:.26458332" id="rect5984" width=".237" height=".109" x="5.537" y="1.16"/></g></g><path id="path5990" d="m 134.57651,122.35329 6.51435,5.59167 v 0.78632 h -7.97237 v -6.08623 z" style="fill:#5b6dae;fill-opacity:1;stroke:none;stroke-width:.26458332px;stroke-linecap:butt;stroke-linejoin:miter;stroke-opacity:1"/></g></g><rect style="opacity:1;fill:#5b6dae;fill-opacity:1;stroke:none;stroke-width:.26458332" id="rect5996" width="2.844" height="4.299" x="82.021" y="41.28"/></g></g><path id="path6002" d="m 76.212572,55.651629 6.514351,5.591662 h 6.935319 V 51.586439 H 77.033759 Z" style="fill:#5b6dae;fill-opacity:1;stroke:none;stroke-width:.26458332px;stroke-linecap:butt;stroke-linejoin:miter;stroke-opacity:1"/></g></g><path style="fill:#5b6dae;fill-opacity:1;stroke:none;stroke-width:.26458332px;stroke-linecap:butt;stroke-linejoin:miter;stroke-opacity:1" id="path6008" d="m 129.12239,33.45736 6.26748,5.402184 -2.4712,5.35988 -12.14028,-8.37878 z"/></g></g><path id="path6014" d="m 53.694446,115.57076 6.302551,5.49574 7.448466,0.25724 -12.932502,-12.93251 z" style="fill:#5b6dae;fill-opacity:1;stroke:none;stroke-width:.26458332px;stroke-linecap:butt;stroke-linejoin:miter;stroke-opacity:1"/></g></clipPath><clipPath id="clipPath5155" clipPathUnits="userSpaceOnUse"><g id="use5157"><path style="fill:#5b6dae;fill-opacity:1;stroke:none;stroke-width:.26458332px;stroke-linecap:butt;stroke-linejoin:miter;stroke-opacity:1" id="path5904" d="m 139.56325,58.866426 6.53721,5.613429 2.80993,13.671924 -22.00043,-12.701952 z"/><g id="g5956" clip-path="url(#clipPath5112)" transform="translate(-17.859375,-3.3072917)"><g id="g5954"><g id="g5950" clip-path="url(#clipPath5074)"><g id="g5948"><g id="g5944" clip-path="url(#clipPath5033)"><g id="g5942"><g id="g5938" clip-path="url(#clipPath4986)"><g id="g5936"><g id="g5932" clip-path="url(#clipPath4957)"><g id="g5930"><g id="g5926" clip-path="url(#clipPath4901)" transform="matrix(63.8638,0,0,63.8638,-273.24001,-38.357102)"><g id="g5924"><g id="g5920" clip-path="url(#clipPath4855)" transform="translate(-2.8377931,-0.23976758)"><g id="g5918"><g id="g5912" clip-path="url(#clipPath4837)"><g id="g5910"><path style="fill:#5b6dae;fill-opacity:1;stroke-width:.01705202" id="path5906" d="M 8.8587208,1.3687791 C 8.7805608,1.36914 8.7059187,1.3757991 8.6402418,1.3874301 8.446766,1.4216111 8.4116383,1.4931544 8.4116383,1.6250928 v 0.1742499 h 0.457207 v 0.058083 H 8.4116383 8.2400524 c -0.1328772,0 -0.2492281,0.079867 -0.2856214,0.2318007 -0.041979,0.1741517 -0.04384,0.2828252 0,0.4646675 0.032499,0.1353564 0.1101144,0.2318008 0.2429913,0.2318008 H 8.3546205 V 2.576808 c 0,-0.1509086 0.1305698,-0.2840226 0.2856213,-0.2840226 h 0.4566743 c 0.1271218,0 0.2286036,-0.1046677 0.2286036,-0.2323337 V 1.6250924 c 0,-0.1239053 -0.1045281,-0.2169831 -0.2286036,-0.2376626 -0.078542,-0.013075 -0.160035,-0.019014 -0.2381953,-0.018651 z M 8.6114666,1.5089258 c 0.047227,0 0.085792,0.039196 0.085792,0.087391 -10e-8,0.048024 -0.038567,0.086859 -0.085792,0.086859 -0.047397,0 -0.085793,-0.038834 -0.085793,-0.086859 0,-0.048195 0.038397,-0.087391 0.085793,-0.087391 z"/><path style="fill:#5b6dae;fill-opacity:1;stroke-width:.01705202" id="path5908" d="m 9.3825374,1.8574263 v 0.2030256 c 0,0.157403 -0.1334473,0.2898841 -0.2856213,0.2898841 H 8.6402418 c -0.1250908,0 -0.2286035,0.1070611 -0.2286035,0.2323338 V 3.018029 c 0,0.1239059 0.1077446,0.1967857 0.2286035,0.2323338 0.1447262,0.042555 0.2835109,0.050245 0.4566743,0 C 9.2120199,3.2170371 9.3255197,3.1499669 9.3255197,3.018029 V 2.8437789 H 8.8688453 v -0.058083 h 0.4566744 0.2286036 c 0.1328771,0 0.1823931,-0.092685 0.2286031,-0.2318007 0.04773,-0.1432179 0.0457,-0.2809453 0,-0.4646674 C 9.7498884,1.9569472 9.6871694,1.8574263 9.5541233,1.8574263 Z M 9.1256913,2.9599456 c 0.047396,10e-8 0.085793,0.038834 0.085793,0.086858 -1e-7,0.048195 -0.038398,0.087391 -0.085793,0.087391 -0.047226,0 -0.085792,-0.039197 -0.085792,-0.087391 10e-8,-0.048024 0.038567,-0.086858 0.085792,-0.086858 z"/></g></g><rect id="rect5914" width=".263" height=".238" x="8.486" y="1.496" style="fill:#5b6dae;fill-opacity:1;stroke-width:.26458332"/><rect id="rect5916" width=".23" height=".221" x="9.012" y="2.937" style="fill:#5b6dae;fill-opacity:1;stroke-width:.26458332"/></g></g><rect style="fill:#5b6dae;fill-opacity:1;stroke-width:.26458332" id="rect5922" width=".237" height=".109" x="5.537" y="1.16"/></g></g><path id="path5928" d="m 134.57651,122.35329 6.51435,5.59167 v 0.78632 h -7.97237 v -6.08623 z" style="fill:#5b6dae;fill-opacity:1;stroke:none;stroke-width:.26458332px;stroke-linecap:butt;stroke-linejoin:miter;stroke-opacity:1"/></g></g><rect style="opacity:1;fill:#5b6dae;fill-opacity:1;stroke:none;stroke-width:.26458332" id="rect5934" width="2.844" height="4.299" x="82.021" y="41.28"/></g></g><path id="path5940" d="m 76.212572,55.651629 6.514351,5.591662 h 6.935319 V 51.586439 H 77.033759 Z" style="fill:#5b6dae;fill-opacity:1;stroke:none;stroke-width:.26458332px;stroke-linecap:butt;stroke-linejoin:miter;stroke-opacity:1"/></g></g><path style="fill:#5b6dae;fill-opacity:1;stroke:none;stroke-width:.26458332px;stroke-linecap:butt;stroke-linejoin:miter;stroke-opacity:1" id="path5946" d="m 129.12239,33.45736 6.26748,5.402184 -2.4712,5.35988 -12.14028,-8.37878 z"/></g></g><path id="path5952" d="m 53.694446,115.57076 6.302551,5.49574 7.448466,0.25724 -12.932502,-12.93251 z" style="fill:#5b6dae;fill-opacity:1;stroke:none;stroke-width:.26458332px;stroke-linecap:butt;stroke-linejoin:miter;stroke-opacity:1"/></g></g><g style="stroke:none;stroke-width:1.0000031;stroke-miterlimit:4;stroke-dasharray:none;stroke-opacity:1" id="g5964" clip-path="url(#clipPath4823)" transform="matrix(63.863799,0,0,63.863799,-291.09937,-41.664393)"><g id="g5962" style="stroke:none;stroke-width:1.0000031;stroke-miterlimit:4;stroke-dasharray:none;stroke-opacity:1"><path id="path5958" d="m 5.9189238,1.0414555 c -0.07816,3.609e-4 -0.1528021,0.00702 -0.218479,0.018651 C 5.506969,1.0942875 5.4718413,1.1658308 5.4718413,1.2977692 v 0.1742499 h 0.457207 v 0.058083 H 5.4718413 5.3002554 c -0.1328772,0 -0.2492281,0.079867 -0.2856214,0.2318007 -0.041979,0.1741517 -0.04384,0.2828252 0,0.4646675 0.032499,0.1353564 0.1101144,0.2318008 0.2429913,0.2318008 H 5.4148235 V 2.2494844 c 0,-0.1509086 0.1305698,-0.2840226 0.2856213,-0.2840226 h 0.4566743 c 0.1271218,0 0.2286036,-0.1046677 0.2286036,-0.2323337 V 1.2977688 c 0,-0.1239053 -0.1045281,-0.2169831 -0.2286036,-0.2376626 -0.078542,-0.013075 -0.160035,-0.019014 -0.2381953,-0.018651 z M 5.6716696,1.1816022 c 0.047227,0 0.085792,0.039196 0.085792,0.087391 -1e-7,0.048024 -0.038567,0.086859 -0.085792,0.086859 -0.047397,0 -0.085793,-0.038834 -0.085793,-0.086859 0,-0.048195 0.038397,-0.087391 0.085793,-0.087391 z" style="fill:#cad6ff;fill-opacity:1;stroke:none;stroke-width:1.0000031;stroke-miterlimit:4;stroke-dasharray:none;stroke-opacity:1"/><path id="path5960" d="m 6.4427404,1.5301027 v 0.2030256 c 0,0.157403 -0.1334473,0.2898841 -0.2856213,0.2898841 H 5.7004448 c -0.1250908,0 -0.2286035,0.1070611 -0.2286035,0.2323338 v 0.4353592 c 0,0.1239059 0.1077446,0.1967857 0.2286035,0.2323338 0.1447262,0.042555 0.2835109,0.050245 0.4566743,0 C 6.2722229,2.8897135 6.3857227,2.8226433 6.3857227,2.6907054 V 2.5164553 H 5.9290483 v -0.058083 h 0.4566744 0.2286036 c 0.1328772,0 0.1823927,-0.092685 0.2286035,-0.2318007 0.047734,-0.1432179 0.045703,-0.2809453 0,-0.4646674 C 6.810091,1.6296236 6.7473721,1.5301027 6.6143263,1.5301027 Z M 6.1858943,2.632622 c 0.047396,10e-8 0.085793,0.038834 0.085793,0.086858 -1e-7,0.048195 -0.038398,0.087391 -0.085793,0.087391 -0.047226,0 -0.085792,-0.039197 -0.085792,-0.087391 1e-7,-0.048024 0.038567,-0.086858 0.085792,-0.086858 z" style="fill:#fff;fill-opacity:1;stroke:none;stroke-width:1.0000031;stroke-miterlimit:4;stroke-dasharray:none;stroke-opacity:1"/></g></g></g></clipPath><filter style="color-interpolation-filters:sRGB" id="filter5046"><feBlend id="feBlend5048" in2="BackgroundImage" mode="overlay"/></filter></defs><metadata id="metadata5"/><g id="g5570" transform="matrix(0.35596355,0,0,0.35596355,-1.7158256,6.1496621)"><rect style="opacity:1;vector-effect:none;fill:#7289da;fill-opacity:1;stroke:none;stroke-width:1;stroke-linecap:butt;stroke-linejoin:miter;stroke-miterlimit:4;stroke-dasharray:none;stroke-dashoffset:0;stroke-opacity:1" id="rect1995" width="463.862" height="463.862" x="34.319" y="34.319" ry="52.766"/><path style="display:inline;fill:#000;fill-opacity:.20554271" id="path5041-2" d="m 330.40568,115.24818 -11.50586,3.30859 c -12.22293,-1.80512 -24.75727,-2.59705 -36.89453,-2.50781 -13.5,0.1 -26.49844,1.19922 -37.89844,3.19922 -3.69979,0.65161 -7.04735,1.38596 -10.10742,2.19922 h -35.89259 v 18.80078 h 4.5 v 7.69922 h 2.7832 c -0.63936,3.71421 -0.88476,7.79967 -0.88476,12.30078 v 4 h -15.39844 l -2.20117,11 17.59961,15.01367 v 0.0859 h 79.20118 v 10 h -79.20118 -29.69922 c -23,0 -43.2,13.8 -49.5,40 -7.3,30 -7.6,48.80117 0,80.20117 0.49734,2.07815 1.06052,4.09848 1.6836,6.0625 l -1.1836,10.43754 13.34571,11.54883 c 7.03195,7.51033 16.37109,11.95117 28.2539,11.95117 h 27.20117 v -36 c 0,-26 22.6,-49 49.50001,-49 h 79.19922 c 22,0 39.59961,-18.10156 39.59961,-40.10156 v -75.19922 c 0,-12.89964 -6.58193,-23.83117 -16.51563,-31.27344 z m 76.80078,77.59961 -14.30078,7.40039 h -20.09961 v 0.0996 10.30078 24.69922 c 0,27.2 -23.1,50 -49.5,50 h -79.09961 c -21.7,0 -39.59962,18.49961 -39.59962,40.09961 v 75.10156 c 0,21.4 18.69962,33.99961 39.59962,40.09961 25.1,7.3 49.09961,8.7 79.09961,0 19.9,-5.7 39.59961,-17.29961 39.59961,-40.09961 v -27.90039 -2.09961 -0.10156 h -0.11914 l -11.7207,-10 h 11.83984 39.59961 c 23,0 31.60156,-16 39.60156,-40 8.3,-24.7 7.9,-48.49922 0,-80.19922 -3.62263,-14.49052 -9.35252,-26.7105 -18.94726,-33.69922 z M 283.80607,360.4474 h 57.5 v 10 h -57.5 z"/><path id="path1948-4" d="m 264.30607,100.94814 c -13.5,0.1 -26.5,1.2 -37.9,3.2 -33.5,5.9 -39.6,18.2 -39.6,41 v 30.1 h 79.2 v 10 h -79.2 -29.7 c -23,0 -43.2,13.8 -49.5,40 -7.3,30 -7.6,48.8 0,80.2 5.6,23.4 19.1,40 42.1,40 h 27.2 v -36 c 0,-26 22.6,-49 49.5,-49 h 79.1 c 22,0 39.6,-18.1 39.6,-40.1 v -75.2 c 0,-21.4 -18.1,-37.4 -39.6,-41 -13.5,-2.3 -27.6,-3.3 -41.2,-3.2 z m -42.8,24.2 c 8.2,0 14.9,6.8 14.9,15.1 0,8.3 -6.7,15 -14.9,15 -8.2,0 -14.9,-6.7 -14.9,-15 0,-8.4 6.7,-15.1 14.9,-15.1 z" class="st2" style="display:inline;fill:#cbd6ff;fill-opacity:1"/><path id="path1950-4" d="m 355.10607,185.24814 v 35 c 0,27.2 -23.1,50 -49.5,50 h -79.1 c -21.7,0 -39.6,18.5 -39.6,40.1 v 75.1 c 0,21.4 18.7,34 39.6,40.1 25.1,7.3 49.1,8.7 79.1,0 19.9,-5.7 39.6,-17.3 39.6,-40.1 v -30.1 h -79.1 v -10 h 79.1 39.6 c 23,0 31.6,-16 39.6,-40 8.3,-24.7 7.9,-48.5 0,-80.2 -5.7,-22.8 -16.6,-40 -39.6,-40 h -29.7 z m -44.5,190.2 c 8.2,0 14.9,6.7 14.9,15 0,8.3 -6.7,15.1 -14.9,15.1 -8.2,0 -14.9,-6.8 -14.9,-15.1 0,-8.3 6.7,-15 14.9,-15 z" class="st3" style="display:inline;fill:#fff"/></g><g style="font-style:normal;font-weight:400;font-size:40px;line-height:1.25;font-family:sans-serif;letter-spacing:2.93066454px;word-spacing:0;fill:#fff;fill-opacity:1;stroke:#fff;stroke-width:1.07226515;stroke-miterlimit:4;stroke-dasharray:none;stroke-opacity:1" id="flowRoot104" aria-label="PYTHON" transform="matrix(1.8652103,0,0,1.8652103,-1221.3087,-217.83377)"><path style="font-style:normal;font-variant:normal;font-weight:900;font-stretch:normal;font-size:45.27256775px;line-height:.25;font-family:'Uni Sans';-inkscape-font-specification:'Uni Sans Heavy';letter-spacing:2.80440903px;word-spacing:0;fill:#fff;fill-opacity:1;stroke:#fff;stroke-width:1.07226515;stroke-miterlimit:4;stroke-dasharray:none;stroke-opacity:1" id="path5594" d="m 764.53526,165.21289 h 8.10379 v -9.37142 h 4.75362 c 7.74161,0 11.68033,-5.65907 11.68033,-11.36342 0,-5.65907 -3.89345,-11.31814 -11.7256,-11.31814 h -12.81214 z m 8.10379,-16.56976 v -7.9227 h 4.70835 c 4.88944,-0.0453 4.88944,7.96797 0,7.9227 z"/><path style="font-style:normal;font-variant:normal;font-weight:900;font-stretch:normal;font-size:45.27256775px;line-height:.25;font-family:'Uni Sans';-inkscape-font-specification:'Uni Sans Heavy';letter-spacing:2.80440903px;word-spacing:0;fill:#fff;fill-opacity:1;stroke:#fff;stroke-width:1.07226515;stroke-miterlimit:4;stroke-dasharray:none;stroke-opacity:1" id="path5596" d="m 810.56366,165.21289 v -12.63105 l 11.22759,-19.42193 h -9.50724 l -5.79488,11.77087 -5.79489,-11.77087 h -9.4167 l 11.18233,19.42193 v 12.63105 z"/><path style="font-style:normal;font-variant:normal;font-weight:900;font-stretch:normal;font-size:45.27256775px;line-height:.25;font-family:'Uni Sans';-inkscape-font-specification:'Uni Sans Heavy';letter-spacing:2.80440903px;word-spacing:0;fill:#fff;fill-opacity:1;stroke:#fff;stroke-width:1.07226515;stroke-miterlimit:4;stroke-dasharray:none;stroke-opacity:1" id="path5598" d="m 849.96174,140.81098 v -7.69634 h -25.21682 v 7.69634 h 8.51125 v 24.40191 h 8.19433 v -24.40191 z"/><path style="font-style:normal;font-variant:normal;font-weight:900;font-stretch:normal;font-size:45.27256775px;line-height:.25;font-family:'Uni Sans';-inkscape-font-specification:'Uni Sans Heavy';letter-spacing:2.80440903px;word-spacing:0;fill:#fff;fill-opacity:1;stroke:#fff;stroke-width:1.07226515;stroke-miterlimit:4;stroke-dasharray:none;stroke-opacity:1" id="path5600" d="m 864.12674,153.12512 h 9.2356 v 12.08777 h 8.14907 v -32.05298 h -8.14907 v 12.13305 h -9.2356 v -12.13305 h -8.14906 v 32.05298 h 8.14906 z"/><path style="font-style:normal;font-variant:normal;font-weight:900;font-stretch:normal;font-size:45.27256775px;line-height:.25;font-family:'Uni Sans';-inkscape-font-specification:'Uni Sans Heavy';letter-spacing:2.80440903px;word-spacing:0;fill:#fff;fill-opacity:1;stroke:#fff;stroke-width:1.07226515;stroke-miterlimit:4;stroke-dasharray:none;stroke-opacity:1" id="path5602" d="m 888.6068,154.66438 c 0,7.33416 6.65507,11.00124 13.31014,11.00124 6.65506,0 13.26486,-3.66708 13.26486,-11.00124 v -10.95596 c 0,-7.33416 -6.65507,-11.00123 -13.31014,-11.00123 -6.65506,0 -13.26486,3.6218 -13.26486,11.00123 z m 8.10379,-10.95596 c 0,-2.35417 2.53526,-3.6218 5.07053,-3.6218 2.62581,0 5.29689,1.13181 5.29689,3.6218 v 10.95596 c 0,2.3089 -2.58054,3.48599 -5.16107,3.48599 -2.58054,0 -5.20635,-1.13181 -5.20635,-3.48599 z"/><path style="font-style:normal;font-variant:normal;font-weight:900;font-stretch:normal;font-size:45.27256775px;line-height:.25;font-family:'Uni Sans';-inkscape-font-specification:'Uni Sans Heavy';letter-spacing:2.80440903px;word-spacing:0;fill:#fff;fill-opacity:1;stroke:#fff;stroke-width:1.07226515;stroke-miterlimit:4;stroke-dasharray:none;stroke-opacity:1" id="path5604" d="m 922.24466,165.21289 h 8.10379 v -12.81214 l -1.04127,-6.20234 0.22636,-0.0453 2.8069,6.4287 7.24361,12.63105 h 8.19434 v -32.05298 h -8.05852 l -0.003,13.84994 c 0,0 0.8633,6.20581 0.90857,6.20581 l -0.22636,0.0453 -2.71635,-6.4287 -7.74161,-13.67232 h -7.69634 z"/></g><style id="style1081" type="text/css">.st0{fill:#7289da}.st2{fill:#cad6ff}.st3{fill:#fff}</style><g style="font-style:normal;font-variant:normal;font-weight:500;font-stretch:normal;font-size:84.30731964px;line-height:1.25;font-family:Ubuntu;-inkscape-font-specification:'Ubuntu Medium';letter-spacing:0;word-spacing:0;fill:#000;fill-opacity:1;stroke:none;stroke-width:2.1076827" id="text6244" aria-label="DISCORD" transform="translate(0,-0.07651336)"><path style="font-style:normal;font-variant:normal;font-weight:900;font-stretch:normal;font-family:'Uni Sans';-inkscape-font-specification:'Uni Sans Heavy';letter-spacing:1.80974996px;fill:#cad6ff;fill-opacity:1;stroke:#cad6ff;stroke-width:2.1076827;stroke-opacity:1" id="path15422" d="m 204.75125,111.64689 v 59.68958 h 22.34144 c 11.97164,0.0843 23.18452,-5.90151 23.18452,-19.6436 v -20.06515 c 0,-13.9107 -11.21288,-19.98083 -23.18452,-19.98083 z m 15.17532,45.52595 v -31.44663 h 7.67197 c 5.05844,0 7.50335,2.44491 7.50335,6.32305 v 18.63192 c 0,3.87813 -2.36061,6.49166 -7.50335,6.49166 z"/><path style="font-style:normal;font-variant:normal;font-weight:900;font-stretch:normal;font-family:'Uni Sans';-inkscape-font-specification:'Uni Sans Heavy';letter-spacing:1.80974996px;fill:#cad6ff;fill-opacity:1;stroke:#cad6ff;stroke-width:2.1076827;stroke-opacity:1" id="path15424" d="m 275.33206,111.64689 h -15.09101 v 59.68958 h 15.09101 z"/><path style="font-style:normal;font-variant:normal;font-weight:900;font-stretch:normal;font-family:'Uni Sans';-inkscape-font-specification:'Uni Sans Heavy';letter-spacing:1.80974996px;fill:#cad6ff;fill-opacity:1;stroke:#cad6ff;stroke-width:2.1076827;stroke-opacity:1" id="path15426" d="m 283.7191,161.38821 c 5.56429,7.16612 13.15194,10.79133 20.31807,10.79133 10.95995,0 23.1002,-6.32304 23.60605,-17.87315 0.67445,-14.66947 -9.94827,-18.37899 -20.57099,-20.31806 -4.6369,-1.01169 -7.75627,-2.69784 -7.92489,-5.56428 0.25292,-6.9132 10.95995,-7.16613 17.1987,-0.50585 l 9.86395,-7.58766 c -6.15443,-7.50335 -13.15194,-9.52672 -20.40237,-9.52672 -10.95995,0 -21.58267,6.15443 -21.58267,17.87315 0,11.38149 8.76796,17.45161 18.37899,18.96914 4.88983,0.67446 10.3698,2.61353 10.20119,5.98582 -0.42154,6.40736 -13.57348,6.07013 -19.5593,-1.1803 z"/><path style="font-style:normal;font-variant:normal;font-weight:900;font-stretch:normal;font-family:'Uni Sans';-inkscape-font-specification:'Uni Sans Heavy';letter-spacing:1.80974996px;fill:#cad6ff;fill-opacity:1;stroke:#cad6ff;stroke-width:2.1076827;stroke-opacity:1" id="path15428" d="m 366.41778,152.70455 c -3.28799,8.26212 -16.77716,6.23875 -16.77716,-0.92738 v -20.57098 c 0,-7.41905 13.32056,-9.10519 17.36731,-1.68615 l 12.30887,-4.97413 c -4.80552,-10.62272 -13.65779,-13.74209 -20.99252,-13.74209 -11.97164,0 -23.77467,6.9132 -23.77467,20.40237 v 20.57098 c 0,13.57348 11.80303,20.40237 23.52174,20.40237 7.50336,0 16.52424,-3.70952 21.49837,-13.40486 z"/><path style="font-style:normal;font-variant:normal;font-weight:900;font-stretch:normal;font-family:'Uni Sans';-inkscape-font-specification:'Uni Sans Heavy';letter-spacing:1.80974996px;fill:#cad6ff;fill-opacity:1;stroke:#cad6ff;stroke-width:2.1076827;stroke-opacity:1" id="path15430" d="m 385.42885,151.69287 c 0,13.65778 12.39318,20.48667 24.78636,20.48667 12.39317,0 24.70204,-6.82889 24.70204,-20.48667 v -20.40238 c 0,-13.65778 -12.39317,-20.48667 -24.78635,-20.48667 -12.39318,0 -24.70205,6.74458 -24.70205,20.48667 z m 15.09101,-20.40238 c 0,-4.38398 4.72121,-6.74458 9.44242,-6.74458 4.88983,0 9.86396,2.10768 9.86396,6.74458 v 20.40238 c 0,4.29967 -4.80552,6.49166 -9.61103,6.49166 -4.80552,0 -9.69535,-2.10768 -9.69535,-6.49166 z"/><path style="font-style:normal;font-variant:normal;font-weight:900;font-stretch:normal;font-family:'Uni Sans';-inkscape-font-specification:'Uni Sans Heavy';letter-spacing:1.80974996px;fill:#cad6ff;fill-opacity:1;stroke:#cad6ff;stroke-width:2.1076827;stroke-opacity:1" id="path15432" d="m 476.44101,171.33647 h 18.80054 l -16.27132,-20.48668 c 7.25043,-2.27629 11.71872,-8.51504 11.71872,-19.5593 -0.33723,-13.99501 -9.86396,-19.6436 -22.17283,-19.6436 h -23.85897 v 59.68958 h 15.25963 v -18.96915 h 2.69783 z M 459.91678,139.384 v -13.65779 h 8.85227 c 9.52672,0 9.52672,13.65779 0,13.65779 z"/><path style="font-style:normal;font-variant:normal;font-weight:900;font-stretch:normal;font-family:'Uni Sans';-inkscape-font-specification:'Uni Sans Heavy';letter-spacing:1.80974996px;fill:#cad6ff;fill-opacity:1;stroke:#cad6ff;stroke-width:2.1076827;stroke-opacity:1" id="path15434" d="m 500.97028,111.64689 v 59.68958 h 22.34144 c 11.97164,0.0843 23.18451,-5.90151 23.18451,-19.6436 v -20.06515 c 0,-13.9107 -11.21287,-19.98083 -23.18451,-19.98083 z m 15.17532,45.52595 v -31.44663 h 7.67196 c 5.05844,0 7.50335,2.44491 7.50335,6.32305 v 18.63192 c 0,3.87813 -2.3606,6.49166 -7.50335,6.49166 z"/></g></svg>